<?xml version="1.0" encoding="utf-8"?>
<svg version="1.1" xmlns="http://www.w3.org/2000/svg" xmlns:xlink="http://www.w3.org/1999/xlink" x="0px" y="0px"
	 viewBox="0 0 500 500" style="enable-background:new 0 0 500 500;" xml:space="preserve">
<g id="BACKGROUND">
	<rect style="fill:#FFFFFF;" width="500" height="500"/>
</g>
<g id="OBJECTS">
	<g>
		<path style="fill:#CED4DD;" d="M93.142,406.083c0,0-53.782-0.416-66.051,7.534c-12.269,7.95,19.96,17.509,55.169,28.445
			c35.209,10.936,42.743,28.391,79.525,29.286c36.782,0.894,85.551,0,144.732,0s125.425,4.472,141.172-5.366
			c15.747-9.838,45.068-14.172,38.226-26.762c-6.842-12.59-4.645-20.906-84.91-25.244
			C320.739,409.639,93.142,406.083,93.142,406.083z"/>
		<g>
			<defs>
				<rect id="SVGID_1_" width="500" height="500"/>
			</defs>
			<clipPath id="SVGID_00000107566551635758567300000015406962684163498937_">
				<use xlink:href="#SVGID_1_"  style="overflow:visible;"/>
			</clipPath>
			<g style="clip-path:url(#SVGID_00000107566551635758567300000015406962684163498937_);">
				<g>
					<path style="fill:#EAEAEA;" d="M83.879,410.223H73.083c-5.116,0-9.263-4.147-9.263-9.263V284.5
						c0-5.116,4.147-9.263,9.263-9.263h10.796c5.116,0,9.263,4.147,9.263,9.263v116.46
						C93.142,406.076,88.994,410.223,83.879,410.223z"/>
					<path style="fill:#EAEAEA;" d="M221.145,410.223H210.35c-5.116,0-9.263-4.147-9.263-9.263V284.5
						c0-5.116,4.147-9.263,9.263-9.263h10.796c5.116,0,9.263,4.147,9.263,9.263v116.46
						C230.408,406.076,226.261,410.223,221.145,410.223z"/>
					<path style="fill:#EAEAEA;" d="M191.824,409.193h-89.42c-5.116,0-9.263-4.147-9.263-9.263v-89.42
						c0-5.116,4.147-9.263,9.263-9.263h89.42c5.116,0,9.263,4.147,9.263,9.263v89.42
						C201.087,405.045,196.94,409.193,191.824,409.193z"/>
					<path style="fill:#EAEAEA;" d="M191.824,313.843h-89.42c-5.116,0-9.263-4.147-9.263-9.263V225.64
						c0-5.116,4.147-9.263,9.263-9.263h89.42c5.116,0,9.263,4.147,9.263,9.263v78.941
						C201.087,309.696,196.94,313.843,191.824,313.843z"/>
					<rect x="75.549" y="410.223" style="fill:#EAEAEA;" width="4.887" height="7.276"/>
					<rect x="213.304" y="410.223" style="fill:#EAEAEA;" width="4.887" height="7.276"/>
				</g>
				<g>
					<polygon style="fill:#EAEAEA;" points="79.256,160.072 -19.911,160.072 -9.911,91.603 69.256,91.603 					"/>
					<g>
						<rect x="25.09" y="159.042" style="fill:#EAEAEA;" width="2" height="249.122"/>
					</g>
					<rect x="-10.782" y="408.164" style="fill:#EAEAEA;" width="74.28" height="8.688"/>
				</g>
			</g>
			<path style="clip-path:url(#SVGID_00000107566551635758567300000015406962684163498937_);fill:#FAD2D5;" d="M269.134,424.492
				c0,0-17.376,7.385-32.579-4.344c-15.204-11.729-39.529-93.393-27.801-106.425c11.728-13.032,28.643,26.063,28.643,26.063
				s-16.533-72.977,0-79.493c16.533-6.516,23.049,53.43,23.049,53.43s17.365-91.222,36.918-82.968s-4.773,82.099-4.773,82.099
				s26.932-48.651,42.57-37.357c15.638,11.294-33.882,76.018-33.882,76.018s35.185-40.398,49.955-25.629
				C366.003,340.655,289.551,412.764,269.134,424.492z"/>
			<g style="clip-path:url(#SVGID_00000107566551635758567300000015406962684163498937_);">
				<path style="fill:#FAD2D5;" d="M464.654,412.931c-1.242-3.006-2.236-6.129-3.186-9.236c-2.431-7.951-4.292-16.081-5.634-24.285
					c-4.051-24.764-3.012-50.201,4.533-74.206c6.141-19.539,12.383-39.046,18.651-58.545c5.886-18.312,11.802-36.614,17.737-54.91
					c2.038-6.282,4.078-12.564,6.122-18.844c0.967-2.972,2.141-5.951,2.924-8.979c0.035-0.137,0.088-0.271,0.132-0.405
					c-0.964,0-1.929,0-2.893,0c0.284,1.684,0.533,3.376,0.778,5.066c0.133,0.912,0.262,1.824,0.388,2.736
					c0.071,0.514,0.142,1.028,0.211,1.542c0.02,0.149,0.04,0.298,0.06,0.448c-0.036-0.267-0.013-0.096,0.008,0.058
					c0.042,0.314,0.084,0.628,0.125,0.943c0.353,2.685,0.686,5.373,1.001,8.063c0.83,7.092,1.534,14.199,2.124,21.316
					c0.738,8.915,1.294,17.845,1.656,26.783c0.409,10.118,0.568,20.247,0.432,30.372c-0.145,10.84-0.627,21.679-1.541,32.482
					c-0.924,10.925-2.292,21.815-4.273,32.601c-1.938,10.55-4.455,21.009-7.802,31.206c-3.141,9.57-7.027,18.911-11.967,27.698
					c-4.662,8.293-10.267,16.069-17.026,22.784c-1.627,1.617-3.318,3.167-5.067,4.652c-1.474,1.251,0.657,3.364,2.121,2.121
					c7.313-6.206,13.523-13.628,18.722-21.672c5.474-8.47,9.821-17.634,13.385-27.057c3.767-9.96,6.633-20.249,8.875-30.653
					c2.34-10.856,4.001-21.855,5.188-32.895c1.175-10.916,1.871-21.881,2.202-32.854c0.314-10.434,0.297-20.878,0.006-31.312
					c-0.262-9.38-0.746-18.754-1.432-28.112c-0.56-7.646-1.255-15.283-2.088-22.904c-0.599-5.477-1.271-10.947-2.028-16.404
					c-0.345-2.484-0.6-5.026-1.114-7.483c-0.022-0.105-0.035-0.213-0.053-0.319c-0.263-1.561-2.474-1.285-2.893,0
					c-2.506,7.683-5.003,15.368-7.498,23.054c-5.762,17.747-11.504,35.5-17.221,53.262c-6.392,19.857-12.758,39.723-19.035,59.618
					c-1.788,5.668-3.611,11.318-4.951,17.114c-1.513,6.545-2.555,13.199-3.178,19.888c-1.132,12.148-0.833,24.415,0.643,36.521
					c1.689,13.854,4.631,27.907,9.724,40.948c0.078,0.201,0.157,0.402,0.24,0.602C462.488,415.487,465.392,414.716,464.654,412.931z
					"/>
			</g>
			<path style="clip-path:url(#SVGID_00000107566551635758567300000015406962684163498937_);fill:#E6A7AD;" d="M462.449,427.202
				c0,0-22.682-55.108,25.96-116.414c48.642-61.305,46.089-69.046,46.089-69.046S540.075,406.306,462.449,427.202z"/>
			<g style="clip-path:url(#SVGID_00000107566551635758567300000015406962684163498937_);">
				<path style="fill:#E6A7AD;" d="M265.831,418.383c-5.018-0.306-10.034-1.009-14.984-1.864c-9.597-1.657-19.361-4.01-28.124-8.365
					c-5.013-2.492-9.584-5.84-13.531-9.812c-3.161-3.181-5.996-7.074-6.488-11.661c-0.459-4.28,0.956-8.538,2.644-12.41
					c0.799-1.833,1.925-3.631,2.258-5.628c0.252-1.516,0.149-3.049-0.247-4.533c-0.914-3.421-3.11-6.403-5.32-9.099
					c-2.701-3.296-5.728-6.312-8.681-9.379c-3.035-3.153-6.092-6.342-8.657-9.898c-2.16-2.994-4.16-6.386-4.648-10.111
					c-0.305-2.332,0.12-4.748,0.56-7.034c0.531-2.755,1.324-5.457,2.378-8.058c1.621-4.002,3.977-7.624,5.892-11.48
					c1.729-3.482,2.93-7.205,2.873-11.131c-0.047-3.252-0.655-6.51-1.181-9.711c-1.332-8.106-2.962-16.389-2.28-24.64
					c0.288-3.488,1.094-7.107,3.139-10.011c1.824-2.591,4.982-4.457,7.956-4.854c5.859-0.783,10.761,4.295,14.167,8.701
					c4.665,6.035,8.178,12.916,11.773,19.613c1.6,2.981,3.193,5.975,4.978,8.851c1.296,2.089,2.707,4.304,4.597,5.912
					c0.752,0.64,1.581,1.199,2.544,1.465c1.199,0.33,1.865,0.031,3.022-0.008c2.991-0.1,5.932,0.571,8.737,1.683
					c7.665,3.038,13.267,9.669,15.521,17.535c1.645,5.745,1.278,11.703,1.648,17.606c0.27,4.304,0.634,8.79,2.054,12.894
					c0.937,2.708,2.404,5.167,4.578,7.061c2.151,1.874,4.666,3.09,7.088,4.549c0.086,0.052,0.167,0.112,0.247,0.171
					c-0.033-0.024-0.261-0.215-0.061-0.043c0.164,0.141,0.321,0.289,0.47,0.445c0.076,0.08,0.502,0.595,0.289,0.317
					c0.152,0.198,0.292,0.406,0.426,0.616c0.684,1.072,1.015,1.885,1.394,2.983c0.994,2.885,1.491,5.94,1.771,8.971
					c0.773,8.352,0.09,16.883-1.557,25.091c-1.821,9.075-4.884,18.048-9.896,25.877c-2.338,3.652-5.126,6.986-8.408,9.827
					c-1.462,1.266,0.668,3.38,2.121,2.121c7.173-6.212,11.995-14.703,15.271-23.509c3.271-8.793,5.073-18.171,5.614-27.527
					c0.411-7.111,0.324-14.839-2.023-21.649c-0.729-2.115-1.733-4.371-3.512-5.816c-2.076-1.687-4.942-2.708-6.869-4.339
					c-5.585-4.725-5.797-13.351-6.12-20.298c-0.279-5.991-0.147-11.912-2.109-17.666c-1.482-4.347-3.876-8.368-7.135-11.618
					c-4.961-4.947-12.107-8.388-19.206-8.291c-0.727,0.01-1.432,0.116-2.154,0.175c0.392-0.032-0.071-0.002-0.168-0.01
					c-0.116-0.009-0.393-0.062,0.062,0.022c-0.114-0.021-0.229-0.041-0.34-0.076c-0.086-0.027-0.172-0.056-0.257-0.085
					c-0.312-0.105,0.313,0.157,0.012,0.002c-0.18-0.093-0.352-0.194-0.525-0.299c-0.092-0.056-0.178-0.121-0.265-0.183
					c-0.308-0.217,0.246,0.206-0.053-0.042c-0.186-0.154-0.366-0.316-0.541-0.483c-1.827-1.748-3.128-3.941-4.485-6.232
					c-3.888-6.561-7.164-13.463-11.126-19.984c-3.542-5.829-7.8-12.409-13.997-15.712c-6.21-3.31-13.723-1.245-17.87,4.369
					c-4.777,6.466-4.297,15.765-3.488,23.328c0.462,4.322,1.182,8.61,1.893,12.896c0.539,3.248,1.178,6.543,1.251,9.844
					c0.085,3.81-1.18,7.337-2.918,10.672c-2.107,4.043-4.464,7.914-6.087,12.193c-1.023,2.696-1.764,5.492-2.237,8.336
					c-0.404,2.427-0.726,4.832-0.376,7.281c0.559,3.906,2.49,7.496,4.745,10.68c5.146,7.265,12.036,13.012,17.717,19.82
					c2.11,2.529,4.298,5.417,5,8.705c0.272,1.275,0.214,2.585-0.266,3.868c-0.825,2.204-2.053,4.408-2.888,6.678
					c-1.51,4.104-2.344,8.506-1.406,12.842c1.06,4.9,4.304,9.038,7.855,12.43c4.11,3.927,8.761,7.276,13.88,9.753
					c4.661,2.256,9.577,3.968,14.561,5.353c8.257,2.294,16.76,3.751,25.279,4.639c1.404,0.146,2.81,0.285,4.219,0.371
					C267.759,421.501,267.752,418.5,265.831,418.383z"/>
			</g>
		</g>
		<g>
			<g>
				<path style="fill:#404568;" d="M460.684,427.868l-164.456,0c-5.07,0-9.18-4.11-9.18-9.18l0-325.245c0-5.07,4.11-9.181,9.18-9.18
					l164.455,0c5.07,0,9.181,4.11,9.181,9.18l0,325.246C469.864,423.758,465.754,427.868,460.684,427.868z"/>
				<path style="fill:#1C1F33;" d="M456.551,84.262l-5.843,0c10.58,0,19.156,8.576,19.156,19.156l0,305.294
					c0,10.58-8.577,19.156-19.156,19.156l5.843,0c10.58,0,19.156-8.577,19.156-19.156l0-305.294
					C475.708,92.838,467.131,84.262,456.551,84.262z"/>
				<path style="fill:#FFFFFF;" d="M454.749,421.788H302.163c-4.671,0-8.458-3.787-8.458-8.458l0-314.388
					c0-4.671,3.787-8.458,8.458-8.458h152.587c4.672,0,8.458,3.787,8.458,8.458l0,314.388
					C463.208,418.001,459.421,421.788,454.749,421.788z"/>
				<path style="fill:#404568;" d="M355.685,97.355h34.095c2.578,0,5.037-1.082,6.779-2.982l3.565-3.889h-55.167l4.263,4.215
					C350.941,96.4,353.264,97.355,355.685,97.355z"/>
			</g>
			<g>
				<path style="fill:#C2CBDA;" d="M319.013,161.126h-11.661c-1.663,0-3.011-1.348-3.011-3.011l0,0c0-1.663,1.348-3.012,3.011-3.012
					h11.661c1.663,0,3.012,1.348,3.012,3.012l0,0C322.025,159.777,320.677,161.126,319.013,161.126z"/>
				<path style="fill:#C2CBDA;" d="M339.957,161.126h-11.661c-1.663,0-3.012-1.348-3.012-3.011l0,0c0-1.663,1.348-3.012,3.012-3.012
					h11.661c1.663,0,3.012,1.348,3.012,3.012l0,0C342.969,159.777,341.621,161.126,339.957,161.126z"/>
				<path style="fill:#C2CBDA;" d="M360.901,161.126H349.24c-1.663,0-3.012-1.348-3.012-3.011l0,0c0-1.663,1.348-3.012,3.012-3.012
					h11.661c1.663,0,3.012,1.348,3.012,3.012l0,0C363.913,159.777,362.565,161.126,360.901,161.126z"/>
				<path style="fill:#C2CBDA;" d="M381.845,161.126h-11.661c-1.663,0-3.012-1.348-3.012-3.011l0,0c0-1.663,1.348-3.012,3.012-3.012
					h11.661c1.663,0,3.012,1.348,3.012,3.012l0,0C384.857,159.777,383.509,161.126,381.845,161.126z"/>
				<path style="fill:#C2CBDA;" d="M402.789,161.126h-11.661c-1.663,0-3.012-1.348-3.012-3.011l0,0c0-1.663,1.348-3.012,3.012-3.012
					h11.661c1.663,0,3.012,1.348,3.012,3.012l0,0C405.801,159.777,404.453,161.126,402.789,161.126z"/>
				<path style="fill:#C2CBDA;" d="M423.733,161.126h-11.661c-1.663,0-3.011-1.348-3.011-3.011l0,0c0-1.663,1.348-3.012,3.011-3.012
					h11.661c1.663,0,3.012,1.348,3.012,3.012l0,0C426.745,159.777,425.397,161.126,423.733,161.126z"/>
				<path style="fill:#C2CBDA;" d="M444.677,161.126h-11.661c-1.663,0-3.011-1.348-3.011-3.011l0,0c0-1.663,1.348-3.012,3.011-3.012
					h11.661c1.663,0,3.012,1.348,3.012,3.012l0,0C447.689,159.777,446.341,161.126,444.677,161.126z"/>
			</g>
			<circle style="fill:#DFE6EF;" cx="333.233" cy="176.678" r="4.046"/>
			<circle style="fill:#DFE6EF;" cx="355.071" cy="176.678" r="4.046"/>
			<path style="fill:#DFE6EF;" d="M418.828,107.639c0,3.814-3.092,6.907-6.907,6.907c-3.814,0-6.907-3.092-6.907-6.907
				c0-3.814,3.092-6.907,6.907-6.907C415.736,100.733,418.828,103.825,418.828,107.639z"/>
			<circle style="fill:#DFE6EF;" cx="376.015" cy="176.678" r="4.046"/>
			<path style="fill:#DFE6EF;" d="M401.005,176.678c0,2.234-1.811,4.046-4.046,4.046c-2.234,0-4.046-1.811-4.046-4.046
				c0-2.234,1.811-4.046,4.046-4.046C399.193,172.633,401.005,174.444,401.005,176.678z"/>
			<path style="fill:#DFE6EF;" d="M421.949,176.678c0,2.234-1.811,4.046-4.046,4.046c-2.235,0-4.046-1.811-4.046-4.046
				c0-2.234,1.811-4.046,4.046-4.046C420.137,172.633,421.949,174.444,421.949,176.678z"/>
			<circle style="fill:#DFE6EF;" cx="438.847" cy="176.678" r="4.046"/>
			<path style="fill:#DFE6EF;" d="M337.279,200.523c0,2.234-1.811,4.046-4.046,4.046c-2.234,0-4.046-1.811-4.046-4.046
				c0-2.234,1.811-4.046,4.046-4.046C335.467,196.477,337.279,198.288,337.279,200.523z"/>
			<path style="fill:#DFE6EF;" d="M359.117,200.523c0,2.234-1.811,4.046-4.046,4.046c-2.234,0-4.046-1.811-4.046-4.046
				c0-2.234,1.811-4.046,4.046-4.046C357.305,196.477,359.117,198.288,359.117,200.523z"/>
			<path style="fill:#DFE6EF;" d="M380.061,200.523c0,2.234-1.811,4.046-4.046,4.046c-2.234,0-4.046-1.811-4.046-4.046
				c0-2.234,1.811-4.046,4.046-4.046C378.249,196.477,380.061,198.288,380.061,200.523z"/>
			<path style="fill:#A0D0FC;" d="M401.005,200.523c0,2.234-1.811,4.046-4.046,4.046c-2.234,0-4.046-1.811-4.046-4.046
				c0-2.234,1.811-4.046,4.046-4.046C399.193,196.477,401.005,198.288,401.005,200.523z"/>
			<path style="fill:#DFE6EF;" d="M421.949,200.523c0,2.234-1.811,4.046-4.046,4.046c-2.235,0-4.046-1.811-4.046-4.046
				c0-2.234,1.811-4.046,4.046-4.046C420.137,196.477,421.949,198.288,421.949,200.523z"/>
			<path style="fill:#DFE6EF;" d="M442.893,200.523c0,2.234-1.811,4.046-4.046,4.046c-2.234,0-4.046-1.811-4.046-4.046
				c0-2.234,1.811-4.046,4.046-4.046C441.081,196.477,442.893,198.288,442.893,200.523z"/>
			<circle style="fill:#DFE6EF;" cx="333.233" cy="224.367" r="4.046"/>
			<circle style="fill:#DFE6EF;" cx="355.071" cy="224.367" r="4.046"/>
			<circle style="fill:#DFE6EF;" cx="376.015" cy="224.367" r="4.046"/>
			<path style="fill:#DFE6EF;" d="M401.005,224.367c0,2.234-1.811,4.046-4.046,4.046c-2.234,0-4.046-1.811-4.046-4.046
				c0-2.234,1.811-4.046,4.046-4.046C399.193,220.321,401.005,222.132,401.005,224.367z"/>
			<path style="fill:#DFE6EF;" d="M421.949,224.367c0,2.234-1.811,4.046-4.046,4.046c-2.235,0-4.046-1.811-4.046-4.046
				c0-2.234,1.811-4.046,4.046-4.046C420.137,220.321,421.949,222.132,421.949,224.367z"/>
			<circle style="fill:#DFE6EF;" cx="438.847" cy="224.367" r="4.046"/>
			<path style="fill:#DFE6EF;" d="M337.279,252.257c0,2.234-1.811,4.046-4.046,4.046c-2.234,0-4.046-1.811-4.046-4.046
				c0-2.234,1.811-4.046,4.046-4.046C335.467,248.211,337.279,250.022,337.279,252.257z"/>
			<path style="fill:#DFE6EF;" d="M317.229,200.523c0,2.234-1.811,4.046-4.046,4.046c-2.234,0-4.046-1.811-4.046-4.046
				c0-2.234,1.811-4.046,4.046-4.046C315.417,196.477,317.229,198.288,317.229,200.523z"/>
			<path style="fill:#DFE6EF;" d="M317.229,224.367c0,2.234-1.811,4.046-4.046,4.046c-2.234,0-4.046-1.811-4.046-4.046
				c0-2.234,1.811-4.046,4.046-4.046C315.417,220.321,317.229,222.132,317.229,224.367z"/>
			<path style="fill:#DFE6EF;" d="M317.229,252.257c0,2.234-1.811,4.046-4.046,4.046c-2.234,0-4.046-1.811-4.046-4.046
				c0-2.234,1.811-4.046,4.046-4.046C315.417,248.211,317.229,250.022,317.229,252.257z"/>
			<path style="fill:#DFE6EF;" d="M359.117,252.257c0,2.234-1.811,4.046-4.046,4.046c-2.234,0-4.046-1.811-4.046-4.046
				c0-2.234,1.811-4.046,4.046-4.046C357.305,248.211,359.117,250.022,359.117,252.257z"/>
			<path style="fill:#DFE6EF;" d="M380.061,252.257c0,2.234-1.811,4.046-4.046,4.046c-2.234,0-4.046-1.811-4.046-4.046
				c0-2.234,1.811-4.046,4.046-4.046C378.249,248.211,380.061,250.022,380.061,252.257z"/>
			<path style="fill:#DFE6EF;" d="M401.005,252.257c0,2.234-1.811,4.046-4.046,4.046c-2.234,0-4.046-1.811-4.046-4.046
				c0-2.234,1.811-4.046,4.046-4.046C399.193,248.211,401.005,250.022,401.005,252.257z"/>
			<path style="fill:#DFE6EF;" d="M421.949,252.257c0,2.234-1.811,4.046-4.046,4.046c-2.235,0-4.046-1.811-4.046-4.046
				c0-2.234,1.811-4.046,4.046-4.046C420.137,248.211,421.949,250.022,421.949,252.257z"/>
			<path style="fill:#DFE6EF;" d="M442.893,252.257c0,2.234-1.811,4.046-4.046,4.046c-2.234,0-4.046-1.811-4.046-4.046
				c0-2.234,1.811-4.046,4.046-4.046C441.081,248.211,442.893,250.022,442.893,252.257z"/>
			<text transform="matrix(1 0 0 1 304.3409 143.9806)" style="fill:#404568; font-family:'Montserrat-SemiBold'; font-size:12px;">JAN</text>
			<path style="fill:#C2CBDA;" d="M323.275,286.881h-15.923c-1.663,0-3.011-1.348-3.011-3.012l0,0c0-1.663,1.348-3.012,3.011-3.012
				h15.923c1.663,0,3.012,1.348,3.012,3.012l0,0C326.287,285.533,324.938,286.881,323.275,286.881z"/>
			<path style="fill:#C2CBDA;" d="M441.861,111.302h-15.923c-1.663,0-3.011-1.348-3.011-3.011v0c0-1.663,1.348-3.011,3.011-3.011
				h15.923c1.663,0,3.012,1.348,3.012,3.011v0C444.872,109.954,443.524,111.302,441.861,111.302z"/>
			<g>
				<rect x="333.232" y="283.37" style="fill:#C2CBDA;" width="111.633" height="1"/>
			</g>
			<path style="fill:#C2CBDA;" d="M323.275,309.499h-15.923c-1.663,0-3.011-1.348-3.011-3.011v0c0-1.663,1.348-3.011,3.011-3.011
				h15.923c1.663,0,3.012,1.348,3.012,3.011v0C326.287,308.151,324.938,309.499,323.275,309.499z"/>
			<g>
				<rect x="333.232" y="305.987" style="fill:#C2CBDA;" width="111.633" height="1"/>
			</g>
			<path style="fill:#C2CBDA;" d="M323.275,395.555h-15.923c-1.663,0-3.011-1.348-3.011-3.012l0,0c0-1.663,1.348-3.012,3.011-3.012
				h15.923c1.663,0,3.012,1.348,3.012,3.012l0,0C326.287,394.207,324.938,395.555,323.275,395.555z"/>
			<g>
				<rect x="333.232" y="392.044" style="fill:#C2CBDA;" width="111.633" height="1"/>
			</g>
			<path style="fill:#A0D0FC;" d="M408.105,312.544h-38.112c-1.663,0-3.011-1.348-3.011-3.012v-6.09
				c0-1.663,1.348-3.012,3.011-3.012h38.112c1.663,0,3.012,1.348,3.012,3.012v6.09C411.116,311.196,409.768,312.544,408.105,312.544
				z"/>
			<path style="fill:#A0D0FC;" d="M423.175,356.5h-94.321c-1.663,0-3.012-1.348-3.012-3.012v-10.957
				c0-1.663,1.348-3.011,3.012-3.011h94.321c1.663,0,3.012,1.348,3.012,3.011v10.957C426.187,355.151,424.839,356.5,423.175,356.5z"
				/>
			<g>
				<g>
					<path style="fill:#DFE6EF;" d="M319.195,113.664h-10.813c-1.561,0-2.83-1.269-2.83-2.83v-5.238c0-1.56,1.269-2.83,2.83-2.83
						h10.813c1.561,0,2.83,1.269,2.83,2.83v5.238C322.025,112.394,320.755,113.664,319.195,113.664z M308.382,103.593
						c-1.104,0-2.002,0.898-2.002,2.002v5.238c0,1.104,0.898,2.002,2.002,2.002h10.813c1.104,0,2.002-0.898,2.002-2.002v-5.238
						c0-1.104-0.898-2.002-2.002-2.002H308.382z"/>
				</g>
				<g>
					<polygon style="fill:#DFE6EF;" points="313.775,108.693 306.517,104.187 306.953,103.483 313.803,107.736 320.973,103.843 
						321.367,104.571 					"/>
				</g>
			</g>
			<path style="fill:#A0D0FC;" d="M324.228,103.593c0,1.58-1.281,2.861-2.861,2.861s-2.861-1.281-2.861-2.861
				s1.281-2.861,2.861-2.861S324.228,102.013,324.228,103.593z"/>
		</g>
		<g>
			<path style="fill:#313440;" d="M152.007,66.931c0,0-20.633,0.434-25.629,20.633c-4.995,20.199-4.561,23.891-13.032,36.054
				c-8.471,12.163-9.557,15.638-9.774,29.538c-0.217,13.9-5.213,19.113,3.258,27.366c8.47,8.253,26.063,13.249,56.253,7.819
				c30.19-5.43,29.538-30.407,29.321-41.267c-0.217-10.86-10.425-20.851-9.339-30.407c1.086-9.557,1.086-27.149-8.253-39.529
				C165.473,64.759,152.007,66.931,152.007,66.931z"/>
			<path style="fill:#D2796F;" d="M161.998,80.397c0,0-3.35,11.511-14.815,14.552c0,0,3.087-2.606,2.218-7.276
				c0,0-4.778,10.751-16.289,9.882c0,0-1.52,14.769,5.43,23.24c6.95,8.471,10.643,9.072,16.072,7.903
				c5.43-1.169,11.946-10.509,14.335-18.545s2.389-11.077,2.389-11.077S164.605,95.601,161.998,80.397z"/>
			<path style="fill:#D2796F;" d="M158.99,126.281c0,0-0.003-0.003-0.003-0.003c-1.47,1.246-2.958,2.115-4.373,2.42
				c-4.751,1.023-8.172,0.691-13.609-5.082c2.553,15.073-1.704,17.813-1.704,17.813c3.367,15.964,14.335,20.09,14.335,20.09
				c5.321-6.299,8.796-21.502,8.796-21.502C157.22,131.872,158.99,126.281,158.99,126.281z"/>
			<path style="fill:#D2796F;" d="M132.99,102.386c-0.011-0.031-0.019-0.053-0.019-0.053s-1.162-1.195-3.117-0.543
				c-1.955,0.651-2.28,4.344-0.869,8.145c1.412,3.801,3.836,4.687,5.773,3.646v0C133.467,109.595,133.072,105.46,132.99,102.386z"/>
			<path style="fill:#D2796F;" d="M173.201,101.791c-0.924-0.308-1.664-0.2-2.195-0.004c-0.308,1.771-0.902,4.479-2.057,8.365
				c-0.288,0.969-0.639,1.957-1.038,2.948c0.089,0.222,0.214,0.389,0.386,0.481c1.937,1.04,4.362,0.154,5.773-3.646
				C175.481,106.134,175.156,102.442,173.201,101.791z"/>
			<path style="fill:#313440;" d="M141.645,135.413c4.798-0.312,13.805-1.586,17.061-6.716l0,0c0.016-1.542,0.285-2.416,0.285-2.416
				s-0.003-0.003-0.003-0.003c-1.47,1.246-2.958,2.115-4.373,2.42c-4.751,1.023-8.172,0.691-13.609-5.082
				C141.91,128.956,141.957,132.743,141.645,135.413z"/>
			<path style="fill:#313440;" d="M132.971,102.334c0.322,1.921,0.52,3.789,0.797,5.652c0.119,0.934,0.289,1.855,0.441,2.785
				l0.55,2.811c-1.127-1.607-1.694-3.54-1.98-5.454c-0.125-0.964-0.198-1.935-0.171-2.905
				C132.631,104.254,132.723,103.282,132.971,102.334z"/>
			<path style="fill:#313440;" d="M171.006,101.787c0.066,1.001-0.003,1.993-0.125,2.975c-0.118,0.983-0.319,1.953-0.555,2.916
				c-0.513,1.906-1.216,3.81-2.415,5.423c0.473-1.939,0.967-3.788,1.447-5.674C169.856,105.548,170.332,103.668,171.006,101.787z"/>
			<path style="fill:#93B0F0;" d="M189.039,152.777c-5.05-3.909-26.606-12.76-26.606-12.76s-3.475,15.204-8.796,21.502
				c0,0-10.968-4.127-14.335-20.09c0,0-18.027,7.113-22.425,10.697c-4.398,3.584-14.963,30.299-14.963,30.299
				s5.352,13.52,14.8,18.244l8.145-10.057c0,0,2.28,16.084,7.005,21.297c0,0,4.072,0.977,16.778,1.466
				c12.706,0.489,19.548-2.932,19.548-2.932s6.532-11.227,8.796-19.831l3.584,5.985c0,0,11.566-6.353,17.593-15.638
				C198.161,180.958,194.089,156.686,189.039,152.777z"/>
			<path style="fill:#313440;" d="M137.727,147.727c0.826,1.49,1.699,2.935,2.574,4.37c0.892,1.426,1.806,2.83,2.79,4.182
				c0.985,1.351,2.044,2.638,3.163,3.878c1.159,1.2,2.38,2.339,3.743,3.371c-1.558-0.694-3.003-1.668-4.29-2.814
				c-1.269-1.164-2.4-2.47-3.425-3.847C140.3,154.071,138.683,151.007,137.727,147.727z"/>
			<path style="fill:#313440;" d="M164.442,143.981c0.118,1.61-0.126,3.234-0.5,4.803c-0.374,1.575-0.931,3.097-1.563,4.581
				c-0.642,1.481-1.411,2.901-2.254,4.271c-0.42,0.686-0.89,1.34-1.344,2.001c-0.501,0.631-0.979,1.275-1.506,1.882l2.169-4.265
				c0.692-1.426,1.408-2.835,2.019-4.289c0.636-1.442,1.217-2.908,1.733-4.398C163.684,147.07,164.173,145.562,164.442,143.981z"/>
			<path style="fill:#313440;" d="M124.858,190.611c0,0-3.095-10.793-3.747-17.961l-4.398,28.018L124.858,190.611z"/>
			<path style="fill:#313440;" d="M176.985,190.611c0,0,3.747-10.956,5.538-18.775c0,0-0.489,20.362-1.955,24.76L176.985,190.611z"
				/>
			<g>
				<g>
					
						<rect x="235.247" y="154.737" transform="matrix(0.9875 -0.1578 0.1578 0.9875 -23.8629 40.7195)" style="fill:#FFFFFF;" width="18.353" height="31.71"/>
					<path style="fill:#313440;" d="M250.864,152.746c-6.041,0.966-12.082,1.931-18.123,2.897c-0.203,0.033-0.342,0.133-0.441,0.257
						c-0.015,0.016-0.031,0.029-0.045,0.047c-0.011,0.017-0.018,0.034-0.027,0.052c-0.089,0.134-0.141,0.298-0.109,0.504
						c1.462,9.146,2.924,18.291,4.386,27.436c0.206,1.292,0.413,2.584,0.62,3.876c0.064,0.4,0.458,0.686,0.859,0.622
						c6.041-0.966,12.082-1.931,18.123-2.897c0.4-0.064,0.686-0.458,0.622-0.859c-1.462-9.145-2.924-18.291-4.386-27.436
						c-0.207-1.292-0.413-2.584-0.62-3.876C251.659,152.968,251.265,152.682,250.864,152.746z M255.129,184.178
						c-5.547,0.887-11.094,1.773-16.642,2.66c-1.422-8.899-2.845-17.797-4.267-26.696c-0.167-1.045-0.334-2.091-0.501-3.136
						c5.547-0.887,11.094-1.773,16.642-2.66c1.422,8.899,2.845,17.797,4.267,26.696
						C254.795,182.087,254.962,183.132,255.129,184.178z"/>
				</g>
				<path style="fill:#A0D0FC;" d="M250.39,170.078c0.521,3.257-1.698,6.32-4.955,6.841s-6.32-1.698-6.841-4.955
					c-0.521-3.257,1.698-6.32,4.955-6.841C246.807,164.602,249.87,166.821,250.39,170.078z"/>
				<path style="fill:#FFFFFF;" d="M248.448,167.982c-0.354-0.256-0.78-0.138-1.047,0.167c-1.354,1.546-2.709,3.092-4.063,4.638
					c-0.007,0.007-0.013,0.015-0.02,0.022c-0.577-0.569-1.154-1.138-1.73-1.707c-0.288-0.284-0.719-0.38-1.056-0.104
					c-0.288,0.237-0.394,0.77-0.104,1.056c0.783,0.773,1.567,1.546,2.35,2.319c0.365,0.361,0.845,0.355,1.187-0.036
					c1.354-1.546,2.709-3.092,4.063-4.638c0.196-0.223,0.391-0.447,0.587-0.67C248.882,168.724,248.754,168.204,248.448,167.982z"/>
			</g>
			<path style="fill:#313440;" d="M137.727,212.693c-0.611-0.306-1.122-0.766-1.559-1.278c-0.445-0.51-0.792-1.1-1.072-1.719
				c-0.268-0.624-0.461-1.286-0.518-1.966c-0.084-0.673-0.013-1.365,0.18-2.011c0.224,0.648,0.369,1.258,0.584,1.849
				c0.201,0.59,0.412,1.168,0.671,1.728C136.494,210.436,137.093,211.508,137.727,212.693z"/>
			<path style="fill:#313440;" d="M157.274,213.099c1.236-0.723,2.295-1.486,3.128-2.473c0.42-0.484,0.801-1.009,1.115-1.589
				c0.34-0.572,0.589-1.197,0.915-1.852c0.086,0.714,0.038,1.459-0.197,2.159c-0.198,0.715-0.602,1.365-1.079,1.938
				c-0.493,0.564-1.094,1.032-1.763,1.344C158.732,212.944,158.003,213.137,157.274,213.099z"/>
			<path style="fill:#4B6CD8;" d="M205.98,335.057c-4.235-29.321-10.425-58.968-16.941-82.262
				c-6.516-23.294-20.851-42.353-20.851-42.353s-6.842,3.421-19.548,2.932c-12.706-0.489-16.778-1.466-16.778-1.466
				s-29.158,30.624-21.014,72.326c5.864,29.647,5.864,36.814,5.864,40.724c0,3.909-2.118,14.335,1.873,39.095
				c3.991,24.76,4.276,42.027,4.276,42.027s8.511,4.235,14.864,1.629c0,0,4.398-40.398,7.33-65.484
				c2.932-25.086,4.887-59.294,8.796-71.348c0,0,12.054,36.814,16.941,49.194c4.887,12.38,5.213,21.176,6.842,30.298
				c1.629,9.122,24.543,53.756,24.543,53.756s9.014,0,14.226-3.258C216.405,400.867,210.215,364.378,205.98,335.057z"/>
			<path style="fill:#313440;" d="M163.798,211.937c0.9-1.004,1.753-1.896,2.469-2.888c0.369-0.486,0.663-1.01,0.949-1.55
				c0.282-0.548,0.466-1.132,0.694-1.781c0.19,0.646,0.216,1.367,0.042,2.041c-0.164,0.676-0.474,1.317-0.876,1.877
				c-0.417,0.55-0.9,1.042-1.455,1.433C165.07,211.461,164.466,211.784,163.798,211.937z"/>
			<path style="fill:#D2796F;" d="M102.709,184.216c0,0-6.521,14.661-7.987,19.222c-1.466,4.561,3.421,25.9,4.887,32.742
				c1.466,6.842,4.072,16.29,7.982,16.452c3.909,0.163,8.308-2.606,8.308-2.606s1.792,6.353,3.258,6.027
				c1.466-0.326,1.629-3.258,1.629-3.258s1.222,1.14,3.258-0.326c2.036-1.466,0.489-6.353,0.489-6.353s1.955,0.652,3.339-0.733
				c1.385-1.385,0.407-4.643,0.407-4.643s3.176,1.059,3.909-1.303c0.733-2.362-5.376-7.33-7.819-8.715
				c-2.443-1.385-11.019,5.376-11.019,5.376s0.872-15.787,0-22.676c-0.872-6.889-0.872-7.704-0.872-7.704l4.235-5.05
				C116.713,200.668,109.718,198.388,102.709,184.216z"/>
			<path style="fill:#D2796F;" d="M180.568,196.596c0,0,7.493,20.374,12.543,23.544c5.05,3.17,13.683-1.496,20.688-8.203
				c7.005-6.708,22.968-25.278,22.968-25.278l-1.249-13.086c0,0,3.258-2.715,3.91-4.887c0,0,4.995-2.932,4.995-4.018
				c0-1.086,0-2.498-6.299-0.652c-6.299,1.846-7.167,1.955-7.928,4.995c-0.76,3.041-2.715,7.707-2.715,7.707
				s-6.842,7.062-12.489,10.646c-5.647,3.584-9.882,4.127-12.814,6.19l-4.018-12.597
				C198.161,180.958,192.623,189.754,180.568,196.596z"/>
			<path style="fill:none;stroke:#313440;stroke-miterlimit:10;" d="M120.786,252.795c0,0-0.407-3.91-2.199-7.493"/>
			<path style="fill:none;stroke:#313440;stroke-miterlimit:10;" d="M124.532,246.116c0,0-1.303-3.91-3.339-6.923"/>
			<path style="fill:none;stroke:#313440;stroke-miterlimit:10;" d="M128.279,240.741c0,0-1.548-3.91-6.027-6.19"/>
			<polygon style="fill:#313440;" points="198.161,180.958 196.858,201.809 202.179,193.555 			"/>
			<polygon style="fill:#313440;" points="229.277,195.239 235.519,173.573 236.767,186.659 			"/>
			<path style="fill:#313440;" d="M119.686,229.704c1.037-0.041,2.042-0.279,2.976-0.678c0.48-0.158,0.917-0.43,1.371-0.638
				c0.422-0.281,0.872-0.505,1.273-0.811c1.63-1.176,3.057-2.634,4.228-4.288l0.465-0.601l0.41-0.642l0.825-1.283
				c0.494-0.891,0.993-1.783,1.467-2.692c0.42-0.934,0.901-1.846,1.313-2.791c0.412-0.946,0.794-1.905,1.238-2.85
				c-0.228,1.012-0.519,2.01-0.779,3.022c-0.306,0.995-0.696,1.965-1.063,2.945c-0.398,0.967-0.894,1.894-1.355,2.837l-0.827,1.345
				l-0.416,0.672l-0.476,0.634c-1.236,1.709-2.784,3.232-4.605,4.342c-0.448,0.286-0.94,0.503-1.41,0.745
				c-0.506,0.172-0.984,0.408-1.508,0.516C121.79,229.746,120.717,229.889,119.686,229.704z"/>
			<path style="fill:#313440;" d="M160.858,250.189c0.201-3.124,0.233-6.244,0.155-9.357c-0.1-3.112-0.247-6.222-0.583-9.315
				c-0.307-3.095-0.717-6.181-1.258-9.247c-0.498-3.077-1.222-6.109-1.898-9.17c0.521,1.474,1.045,2.955,1.488,4.46
				c0.414,1.512,0.838,3.025,1.164,4.561c0.725,3.058,1.166,6.176,1.498,9.299c0.313,3.127,0.437,6.273,0.354,9.413
				c-0.04,1.57-0.131,3.137-0.257,4.701C161.347,247.092,161.182,248.654,160.858,250.189z"/>
			<path style="fill:#313440;" d="M168.188,210.442c0.431,1.279,0.841,2.559,1.3,3.823c0.431,1.272,0.877,2.538,1.355,3.791
				c0.951,2.506,1.927,4.999,3.049,7.422c1.111,2.425,2.348,4.793,3.84,6.985c0.744,1.096,1.571,2.141,2.54,3.04
				c0.945,0.924,2.054,1.689,3.328,2.144c-1.34-0.235-2.566-0.944-3.649-1.773c-1.073-0.859-1.996-1.883-2.839-2.955
				c-1.689-2.155-2.98-4.57-4.128-7.023c-1.117-2.472-2.08-5.005-2.866-7.592C169.324,215.72,168.641,213.104,168.188,210.442z"/>
			<path style="fill:#313440;" d="M152.312,218.223c0,1.059-0.858,1.917-1.917,1.917c-1.059,0-1.917-0.858-1.917-1.917
				c0-1.059,0.858-1.917,1.917-1.917C151.454,216.306,152.312,217.165,152.312,218.223z"/>
			<path style="fill:#313440;" d="M153.854,270.876c0,0,1.14-7.982,10.262-11.24c0,0-3.065,13.52-1.207,24.597
				c1.858,11.077,4.765,27.422,4.765,27.422L153.854,270.876z"/>
			<path style="fill:#313440;" d="M115.899,250.026c-1.393,6.435-1.926,13.025-1.979,19.586c-0.024,6.563,0.449,13.139,1.688,19.578
				c0.611,3.213,1.378,6.423,2.019,9.655c0.664,3.227,1.272,6.467,1.803,9.723c1.094,6.503,1.71,13.114,1.784,19.711
				c0.023,3.289,0.129,6.584,0,9.894c-0.118,3.3-0.331,6.58-0.422,9.86c-0.206,6.559,0.127,13.121,0.856,19.647
				c0.341,3.266,0.817,6.517,1.329,9.765c0.504,3.254,0.903,6.534,1.208,9.813c0.574,6.564,0.868,13.149,0.862,19.731
				c-0.157-6.579-0.615-13.149-1.349-19.681c-0.36-3.269-0.794-6.52-1.344-9.762c-0.558-3.244-1.081-6.501-1.47-9.776
				c-0.854-6.54-1.162-13.161-1.002-19.76c0.077-3.299,0.275-6.589,0.377-9.866c0.114-3.269-0.009-6.557-0.043-9.847
				c-0.044-6.568-0.623-13.1-1.682-19.584c-0.513-3.242-1.104-6.474-1.752-9.696c-0.636-3.225-1.356-6.427-1.927-9.69
				C112.645,276.307,112.919,262.851,115.899,250.026z"/>
			<path style="fill:#313440;" d="M162.328,275.119c3.841,10.699,7.5,21.462,10.961,32.293c1.733,5.417,3.394,10.853,4.791,16.388
				c0.701,2.791,1.076,5.621,1.523,8.422c0.436,2.806,0.9,5.599,1.481,8.367c1.13,5.544,2.706,10.994,4.497,16.374
				c1.764,5.394,3.799,10.684,5.954,15.936c2.157,5.25,4.454,10.445,6.823,15.608c2.341,5.176,4.791,10.303,7.277,15.413
				c-5.339-10.035-10.306-20.273-14.809-30.723c-2.271-5.215-4.294-10.55-6.108-15.945c-1.825-5.391-3.446-10.87-4.612-16.461
				c-0.572-2.796-1.024-5.614-1.445-8.425c-0.433-2.811-0.792-5.627-1.464-8.355c-1.341-5.497-3.023-10.93-4.639-16.372
				c-1.642-5.437-3.345-10.858-5.066-16.273L162.328,275.119z"/>
			<path style="fill:#D2796F;" d="M122.863,406.08c0,0,0.529,9.611-1.099,14.172c-1.629,4.561-11.403,18.082-11.403,18.082
				s0.489,4.724,7.819,2.28c7.33-2.443,9.122-5.538,13.52-8.633c4.398-3.095,5.213-4.887,5.213-4.887s-0.489-6.353,0-11.566
				c0.489-5.213,0.814-7.819,0.814-7.819C131.374,410.315,122.863,406.08,122.863,406.08z"/>
			<path style="fill:#313440;" d="M136.912,427.093c0,0-0.814,1.792-5.213,4.887c-4.398,3.095-6.19,6.19-13.52,8.633
				c-7.33,2.443-7.819-2.28-7.819-2.28s-4.724,3.909-7.493,6.516c-2.769,2.606-1.629,5.701,0,6.353
				c1.629,0.652,13.255,0.815,16.483,0c3.227-0.814,9.255-7.819,14.304-11.728c5.05-3.91,5.05-5.05,5.05-7.005
				S138.284,425.373,136.912,427.093z"/>
			<path style="fill:#313440;" d="M122.863,406.08c0,0,5.647,7.57,13.921,11.237l0.943-9.608
				C137.727,407.709,131.781,410.315,122.863,406.08z"/>
			<path style="fill:#313440;" d="M133.573,424.161c0.512-0.692,0.798-1.241,0.957-1.848c0.078-0.304,0.121-0.625,0.158-0.977
				c0.033-0.355,0.039-0.728,0.106-1.166c0.323,0.291,0.548,0.66,0.669,1.075c0.131,0.414,0.132,0.874,0.033,1.322
				C135.261,423.457,134.458,424.192,133.573,424.161z"/>
			<path style="fill:#D2796F;" d="M202.179,404.125c0,0,3.87,7.276,3.455,16.507c0,0,8.925,4.344,16.852,6.407
				c7.928,2.063,12.38,4.995,16.615,5.104c4.235,0.109,6.516-0.326,7.059-1.52c0.543-1.195-2.063-2.823-7.276-5.756
				c-5.213-2.932-12.054-7.819-15.529-11.729c-3.475-3.909-6.95-12.271-6.95-12.271S212.605,403.69,202.179,404.125z"/>
			<path style="fill:#313440;" d="M254.197,434.315c-1.195-2.606-10.307-6.473-10.308-6.473c1.794,1.202,2.595,2.07,2.272,2.781
				c-0.543,1.195-2.823,1.629-7.059,1.52c-4.235-0.109-8.688-3.041-16.615-5.104c-7.928-2.063-16.852-6.407-16.852-6.407
				c-1.215,6.407,0,10.86,0,10.86s0.78,2.823,9.142,2.932c8.362,0.109,12.814,3.041,24.652,6.19c11.837,3.149,14.769,0,14.769,0
				S255.392,436.921,254.197,434.315z"/>
			<path style="fill:#313440;" d="M205.438,415.419c0,0,4.234-6.516,10.967-14.552c0,0-4.452,2.715-14.226,3.258
				C202.179,404.125,204.896,409.12,205.438,415.419z"/>
			<path style="fill:#313440;" d="M208.261,413.899c-0.137,1.105-0.275,2.102,0.003,2.899c0.127,0.395,0.355,0.751,0.711,1.059
				c0.153,0.18,0.379,0.292,0.572,0.465c0.212,0.148,0.442,0.276,0.669,0.463c-0.279,0.029-0.563,0.023-0.85-0.006
				c-0.271-0.081-0.574-0.108-0.83-0.276c-0.554-0.241-1.012-0.78-1.219-1.385c-0.197-0.614-0.161-1.253,0.025-1.802
				C207.525,414.765,207.823,414.268,208.261,413.899z"/>
			<path style="fill:#D2796F;" d="M252.771,159.925c0,0-0.61,1.893-1.262,5.558c-0.652,3.665-0.774,5.648,0.631,5.756
				c0,0-0.398,3.41,0.631,4.018c1.029,0.608,1.691,0,1.691,0s-1.65,3.747-0.347,4.968c1.303,1.222,1.872,0,1.872,0
				s-0.732,1.385-0.324,2.443c0.407,1.059,1.792-0.326,2.688-2.036c0.896-1.71,1.547-4.235,0.57-4.968c0,0,0.651-3.503-1.222-4.643
				c0,0,1.041-4.479-1.174-5.538c0,0,0.052-3.176-1.301-5.213c-1.353-2.036-2.743-2.156-2.743-2.156L252.771,159.925z"/>
			<path style="fill:#313440;" d="M252.14,171.239c0.726-1.164,1.507-2.228,2.251-3.32c0.754-1.09,1.447-2.179,2.135-3.366
				c-0.124,1.382-0.758,2.663-1.517,3.79C254.221,169.458,253.294,170.482,252.14,171.239z"/>
			<path style="fill:#313440;" d="M254.462,175.257c0.479-0.809,1.027-1.485,1.566-2.172c0.552-0.682,1.069-1.342,1.671-2.064
				c-0.051,0.953-0.523,1.811-1.085,2.531C256.028,174.26,255.335,174.887,254.462,175.257z"/>
			<path style="fill:#313440;" d="M255.988,180.313c0.346-0.885,0.814-1.643,1.294-2.396c0.499-0.744,0.995-1.465,1.639-2.165
				c-0.105,0.951-0.518,1.804-1.012,2.576C257.395,179.089,256.793,179.798,255.988,180.313z"/>
		</g>
	</g>
</g>
</svg>
