<?xml version="1.0" encoding="utf-8"?>
<!-- Generator: Adobe Illustrator 27.5.0, SVG Export Plug-In . SVG Version: 6.00 Build 0)  -->
<svg version="1.1" xmlns="http://www.w3.org/2000/svg" xmlns:xlink="http://www.w3.org/1999/xlink" x="0px" y="0px"
	 viewBox="0 0 500 500" style="enable-background:new 0 0 500 500;" xml:space="preserve">
<g id="BACKGROUND">
	<rect style="fill:#FFFFFF;" width="500" height="500"/>
</g>
<g id="OBJECTS">
	<circle style="fill:#ACC7FF;" cx="257.228" cy="242.424" r="199.327"/>
	<g>
		<g>
			<g>
				<g>
					<g>
						<polygon style="fill:#225FC2;" points="450.869,255.722 342.673,255.722 342.673,245.485 382.807,200.105 452.32,200.105 
													"/>
						<polygon style="fill:#14448E;" points="460.109,255.722 407.915,255.722 407.915,245.485 448.049,200.105 460.109,200.105 
													"/>
					</g>
					<g>
						<polygon style="fill:#14448E;" points="404.998,242.424 350.467,242.424 381.682,207.247 436.212,207.247 						"/>
						<path style="fill:#225FC2;" d="M373.766,231.829c-0.006,0-0.012,0-0.018-0.001c-0.182-0.009-0.214-0.15-0.079-0.337
							l6.213-8.571l-2.63,2.062c-0.194,0.151-0.426,0.25-0.589,0.25h-3.643c-0.219,0-0.241-0.178-0.049-0.397
							c0.192-0.219,0.526-0.397,0.746-0.397h3.374l4.045-3.171c0.211-0.166,0.458-0.265,0.632-0.247
							c0.16,0.021,0.182,0.158,0.054,0.335l-5.832,8.045l16.42-14.607c0.214-0.189,0.507-0.316,0.683-0.3
							c0.18,0.017,0.197,0.173,0.04,0.368l-9.323,11.559l2.411-1.76c0.185-0.135,0.399-0.221,0.55-0.221h3.806l4.28-3.598
							c0.207-0.174,0.498-0.294,0.646-0.278c0.173,0.011,0.207,0.145,0.083,0.325l-5.048,7.283l7.687-6.851
							c0.203-0.181,0.489-0.318,0.662-0.303c0.182,0.005,0.223,0.139,0.097,0.323l-2.122,3.098h18.779
							c0.219,0,0.241,0.178,0.049,0.397c-0.192,0.219-0.526,0.397-0.746,0.397h-19.108c-0.19,0-0.236-0.136-0.107-0.323l1.118-1.632
							l-7.723,6.883c-0.204,0.182-0.519,0.3-0.663,0.303c-0.182-0.006-0.222-0.141-0.095-0.326l5.216-7.527l-2.787,2.343
							c-0.197,0.166-0.449,0.278-0.623,0.278h-3.851l-3.913,2.857c-0.22,0.161-0.466,0.245-0.62,0.214
							c-0.145-0.035-0.147-0.183-0.002-0.362l8.477-10.51l-15.845,14.096C374.215,231.706,373.948,231.829,373.766,231.829z"/>
					</g>
				</g>
				<g>
					<g>
						<path style="fill:#6F98E2;" d="M471.293,238.909h-0.795c0-1.83-1.489-3.319-3.32-3.319h-7.069v-0.795h7.069
							C469.447,234.795,471.293,236.641,471.293,238.909z"/>
						<path style="fill:#DE4544;" d="M465.229,237.022h-5.12v-3.66h5.12c0.954,0,1.727,0.773,1.727,1.727v0.206
							C466.956,236.249,466.183,237.022,465.229,237.022z"/>
					</g>
					<g>
						<path style="fill:#6F98E2;" d="M471.293,429.404h-0.795V228.552c0-1.83-1.489-3.319-3.32-3.319h-7.069v-0.795h7.069
							c2.268,0,4.115,1.845,4.115,4.114V429.404z"/>
						<path style="fill:#E88C45;" d="M465.229,226.665h-5.12v-3.66h5.12c0.954,0,1.727,0.773,1.727,1.727v0.206
							C466.956,225.892,466.183,226.665,465.229,226.665z"/>
					</g>
				</g>
			</g>
			<g>
				<g>
					<g>
						<rect x="417.147" y="366.983" style="fill:#EFBC40;" width="22.712" height="12.346"/>
						<path style="fill:#E88C45;" d="M438.356,366.983h-19.707c-0.83,0-1.503-0.673-1.503-1.503v-1.717
							c0-0.83,0.673-1.503,1.503-1.503h19.707c0.83,0,1.503,0.673,1.503,1.503v1.717
							C439.858,366.311,439.186,366.983,438.356,366.983z"/>
					</g>
					<g>
						<path style="fill:#FF7168;" d="M389.472,380.558h-15.147c-0.91,0-1.647-0.737-1.647-1.647v-20.482
							c0-0.909,0.737-1.647,1.647-1.647h15.147c0.909,0,1.647,0.737,1.647,1.647v20.482
							C391.119,379.82,390.381,380.558,389.472,380.558z"/>
						<path style="fill:#DE4544;" d="M389.351,356.782h-14.904c-0.977,0-1.768-0.792-1.768-1.768v-1.757
							c0-0.977,0.792-1.768,1.768-1.768h14.904c0.977,0,1.768,0.792,1.768,1.768v1.757
							C391.119,355.991,390.327,356.782,389.351,356.782z"/>
					</g>
					<g>
						<polygon style="fill:#225FC2;" points="352.07,371.696 407.748,371.696 407.748,380.555 365.274,380.555 						"/>
						<polygon style="fill:#225FC2;" points="452.723,371.696 439.519,380.555 413.396,380.555 413.396,371.696 						"/>
					</g>
				</g>
				<g>
					<g>
						<path style="fill:#6F98E2;" d="M410.985,266.669h-76.289v-10.945h76.289V266.669z M335.491,265.874h74.699v-9.355h-74.699
							V265.874z"/>
						<path style="fill:#6F98E2;" d="M465.695,266.669H410.19v-10.945h55.504V266.669z M410.985,265.874H464.9v-9.355h-53.915
							V265.874z"/>
					</g>
					<path style="fill:#6F98E2;" d="M340.836,429.38h-6.14V265.874h6.14V429.38z M335.491,428.585h4.55V266.669h-4.55V428.585z"/>
					<path style="fill:#6F98E2;" d="M413.657,429.38h-6.14V265.874h6.14V429.38z M408.312,428.585h4.55V266.669h-4.55V428.585z"/>
					<path style="fill:#6F98E2;" d="M465.695,429.38h-6.14V265.874h6.14V429.38z M460.349,428.585h4.55V266.669h-4.55V428.585z"/>
					<path style="fill:#6F98E2;" d="M408.312,388.243h-68.271v-8.005h68.271V388.243z M340.836,387.448h66.681v-6.415h-66.681
						V387.448z"/>
					<path style="fill:#6F98E2;" d="M460.349,388.243h-47.487v-8.005h47.487V388.243z M413.657,387.448h45.897v-6.415h-45.897
						V387.448z"/>
				</g>
			</g>
		</g>
		<g>
			<path style="fill:#6F98E2;" d="M419.332,179.42H333.59c-2.76,0-4.997-2.238-4.997-4.998V88.681c0-2.76,2.238-4.997,4.997-4.997
				h85.741c2.76,0,4.997,2.237,4.997,4.997v85.741C424.329,177.182,422.092,179.42,419.332,179.42z"/>
			<rect x="333.233" y="88.324" style="fill:#ACC7FF;" width="86.456" height="86.455"/>
			<g>
				<g>
					<path style="fill:#225FC2;" d="M410.393,155.748c-0.181,0-0.344-0.124-0.387-0.307c-1.823-7.771-2.306-16.047-2.644-23.858
						c-0.084-1.934-0.055-3.883-0.028-5.769l0.015-1.072c0.049-3.836-2.036-7.765-5.718-10.779
						c-1.737-1.421-3.575-2.452-5.464-3.063c-0.713-0.231-1.425-0.437-2.133-0.641c-2.137-0.617-4.347-1.255-6.352-2.564
						c-2.711-1.768-4.302-3.609-4.727-5.473c-0.05-0.214,0.085-0.427,0.299-0.476c0.209-0.049,0.427,0.085,0.475,0.299
						c0.378,1.656,1.854,3.333,4.387,4.984c1.905,1.243,3.962,1.837,6.138,2.466c0.716,0.206,1.436,0.414,2.157,0.648
						c1.983,0.642,3.909,1.72,5.723,3.204c3.871,3.167,6.061,7.324,6.009,11.404l-0.015,1.073c-0.027,1.874-0.056,3.812,0.028,5.723
						c0.336,7.773,0.816,16.007,2.623,23.711c0.05,0.214-0.083,0.427-0.296,0.478C410.453,155.745,410.423,155.748,410.393,155.748z
						"/>
					<path style="fill:#225FC2;" d="M393.313,161.365c-0.008,0-0.018-0.001-0.027-0.001c-0.218-0.014-0.384-0.204-0.369-0.423
						c0.75-11.27,2.866-26.595,2.887-26.748c0.027-0.197,0.196-0.343,0.393-0.343c0.001,0,0.003,0,0.004,0
						c0.2,0.002,0.367,0.153,0.39,0.351c0.022,0.182,2.139,18.178,4.051,21.561c0.109,0.191,0.042,0.434-0.15,0.542
						c-0.193,0.106-0.435,0.041-0.541-0.151c-1.509-2.669-3.063-13.423-3.766-18.797c-0.655,5.059-1.928,15.429-2.475,23.637
						C393.696,161.204,393.521,161.365,393.313,161.365z"/>
					<path style="fill:#225FC2;" d="M359.609,161.365c-0.208,0-0.383-0.161-0.396-0.371c-0.547-8.209-1.82-18.579-2.475-23.637
						c-0.702,5.374-2.257,16.128-3.766,18.797c-0.107,0.192-0.349,0.258-0.541,0.151c-0.191-0.108-0.259-0.351-0.15-0.542
						c1.911-3.383,4.029-21.379,4.05-21.561c0.023-0.199,0.19-0.349,0.39-0.351c0.001,0,0.003,0,0.004,0
						c0.199,0,0.366,0.146,0.393,0.343c0.022,0.153,2.137,15.478,2.887,26.748c0.014,0.219-0.151,0.408-0.369,0.423
						C359.627,161.365,359.617,161.365,359.609,161.365z"/>
					<path style="fill:#225FC2;" d="M342.529,155.748c-0.03,0-0.06-0.003-0.091-0.01c-0.213-0.05-0.346-0.264-0.296-0.478
						c1.807-7.704,2.287-15.938,2.623-23.711c0.083-1.893,0.055-3.811,0.028-5.667l-0.016-1.13
						c-0.052-4.079,2.138-8.236,6.01-11.403c1.812-1.483,3.738-2.562,5.723-3.204c0.72-0.233,1.441-0.441,2.157-0.648
						c2.176-0.629,4.233-1.222,6.138-2.466c2.533-1.652,4.009-3.328,4.386-4.984c0.048-0.215,0.257-0.348,0.475-0.3
						c0.214,0.049,0.348,0.262,0.299,0.476c-0.423,1.864-2.014,3.706-4.725,5.474c-2.006,1.309-4.215,1.947-6.352,2.564
						c-0.708,0.204-1.42,0.41-2.133,0.641c-1.89,0.612-3.729,1.642-5.464,3.063c-3.682,3.014-5.766,6.943-5.718,10.779l0.015,1.129
						c0.027,1.866,0.055,3.797-0.028,5.712c-0.339,7.811-0.822,16.087-2.644,23.858C342.873,155.624,342.71,155.748,342.529,155.748
						z"/>
				</g>
				<g>
					<g>
						<path style="fill:#225FC2;" d="M382.799,137.452c-3.254,0-5.901-2.647-5.901-5.9c0-3.254,2.647-5.9,5.901-5.9
							c3.254,0,5.9,2.647,5.9,5.9C388.699,134.805,386.053,137.452,382.799,137.452z M382.799,126.446
							c-2.816,0-5.106,2.29-5.106,5.106c0,2.815,2.29,5.105,5.106,5.105c2.815,0,5.105-2.29,5.105-5.105
							C387.904,128.736,385.614,126.446,382.799,126.446z"/>
						<path style="fill:#225FC2;" d="M385.781,131.552c0,1.647-1.335,2.982-2.982,2.982c-1.647,0-2.982-1.335-2.982-2.982
							c0-1.647,1.335-2.982,2.982-2.982C384.446,128.57,385.781,129.905,385.781,131.552z"/>
					</g>
					<path style="fill:#225FC2;" d="M382.799,131.949c-0.032,0-0.065-0.004-0.098-0.012c-0.212-0.054-0.341-0.271-0.287-0.483
						l7.509-29.417c0.044-0.176,0.204-0.299,0.385-0.299h19.075c0.22,0,0.398,0.178,0.398,0.397s-0.178,0.397-0.398,0.397h-18.767
						l-7.433,29.118C383.139,131.83,382.977,131.949,382.799,131.949z"/>
					<rect x="390.454" y="96.646" style="fill:#14448E;" width="18.93" height="2.258"/>
				</g>
			</g>
		</g>
		<g>
			<path style="fill:#6F98E2;" d="M226.741,132.346h-79.685V52.661h79.685V132.346z M147.85,131.552h78.096V53.456H147.85V131.552z"
				/>
			<g>
				<circle style="fill:#EFBC40;" cx="190.264" cy="95.086" r="18.647"/>
				<path style="fill:#225FC2;" d="M221.193,89.941v36.861h-36.201c-1.396-3.326-2.158-6.968-2.158-10.802
					c0-15.486,12.541-28.027,28.027-28.027C214.516,87.973,217.994,88.671,221.193,89.941z"/>
				<path style="fill:#14448E;" d="M203.143,126.801h-50.544V81.55c1.65-0.19,3.313-0.279,5.014-0.279
					C182.758,81.271,203.143,101.656,203.143,126.801z"/>
			</g>
		</g>
	</g>
	<g>
		<g>
			<g>
				<path style="fill:#6F98E2;" d="M280.691,332.063h6.14v124.324h-6.14V332.063z M286.036,332.858h-4.55v122.735h4.55V332.858z"/>
				<path style="fill:#6F98E2;" d="M323.745,332.063h6.14v124.324h-6.14V332.063z M329.09,332.858h-4.55v122.735h4.55V332.858z"/>
				<path style="fill:#6F98E2;" d="M237.637,332.063h6.14v124.324h-6.14V332.063z M242.982,332.858h-4.55v122.735h4.55V332.858z"/>
				<path style="fill:#6F98E2;" d="M286.036,430.66h38.504v5.882h-38.504V430.66z M323.745,431.455h-36.914v4.293h36.914V431.455z"
					/>
				<path style="fill:#6F98E2;" d="M242.982,430.66h38.503v5.882h-38.503V430.66z M280.691,431.455h-36.914v4.293h36.914V431.455z"
					/>
			</g>
			<path style="fill:#DE4544;" d="M240.652,335.843h86.218c4.915,0,8.899-3.984,8.899-8.899v-4.255c0-4.915-3.984-8.899-8.899-8.899
				h-86.218c-4.915,0-8.899,3.984-8.899,8.899v4.255C231.752,331.859,235.737,335.843,240.652,335.843z"/>
		</g>
		<g>
			<g>
				<path style="fill:#E89787;" d="M267.365,194.503c0,0-24.274,28.553-25.476,112.578h9.872c0,0,1.862-51.407,18.551-82.711
					L267.365,194.503z"/>
				<path style="fill:#EFBC40;" d="M274.347,222.841c0,0-16.188,20.741-20.185,68.349l-12.273,3.475
					c0,0,0.702-82.274,32.998-108.599L274.347,222.841z"/>
			</g>
			<g>
				<path style="fill:#FFFEFF;" d="M215.135,403.505c-8.867,6.84-24.114,5.05-23.777,13.251c19.928,1.647,36.845-1.773,36.845-1.773
					s2.53-6.753,0.543-12.132L215.135,403.505z"/>
				<path style="fill:#0E2E58;" d="M271.286,285.852l28.519,0.11l0.237,5.44c0.612,14.069-10.135,26.049-24.187,26.976
					c-20.934,1.381-39.513,2.832-55.813,4.266c5.237,62.407,8.686,80.206,8.686,80.206c-4.524,2.979-9.06,3.33-13.611,0.656
					c-4.473-18.653-12.391-56.179-18.05-82.277c-2.043-9.423,3.88-18.73,13.28-20.879
					C243.153,292.851,271.324,286.472,271.286,285.852z"/>
			</g>
			<g>
				<path style="fill:#FFFEFF;" d="M241.134,403.923c-8.654,7.109-23.948,5.787-23.36,13.974
					c19.969,1.035,36.774-2.903,36.774-2.903s2.322-6.827,0.171-12.143L241.134,403.923z"/>
				<path style="fill:#14448E;" d="M301.84,287.267l23.946-1.304l0.237,5.44c0.612,14.069-10.135,26.049-24.187,26.976
					c-20.934,1.381-39.513,2.832-55.813,4.266c5.237,62.407,8.686,80.206,8.686,80.206c-4.524,2.979-9.024,3.746-13.575,1.072
					c-4.473-18.653-12.427-56.595-18.085-82.694c-2.043-9.423,3.88-18.73,13.28-20.879
					C269.134,292.851,301.878,287.887,301.84,287.267z"/>
			</g>
			<g>
				<g>
					<g>
						<path style="fill:#E89787;" d="M323.153,194.503c0,0,24.274,28.553,25.476,112.578h-9.872c0,0-1.862-51.407-18.551-82.711
							L323.153,194.503z"/>
						<g>
							<path style="fill:#E89787;" d="M335.519,316.74c-0.016,0.729-0.156,1.827,0.597,2.302c0.766,0.483,1.614-0.046,1.937-0.752
								c0.441-0.963,0.646-2.089,0.949-3.101c0.102-0.34,0.204-0.68,0.306-1.02c0.417,2.154,0.493,4.362,0.199,6.531
								c-0.19,1.405-0.523,2.789-1.009,4.122c-0.371,1.019-0.874,2.258,0.068,3.164c0.48,0.461,1.076,0.512,1.617,0.321
								c0.54,0.349,1.275,0.399,1.913,0.063c0.176-0.093,0.337-0.211,0.49-0.342c0.131,0.228,0.39,0.383,0.713,0.259
								c0.963-0.369,1.678-1.048,2.24-1.855c0.199,0.053,0.421,0.023,0.596-0.163c3.328-3.521,4.912-8.412,4.434-13.176
								c-0.223-2.228-0.851-4.894-2.333-6.694c-1.829-2.223-4.843-1.966-7.409-1.534c-0.072,0.012-0.128,0.041-0.184,0.069
								c-0.233-0.214-0.605-0.278-0.852,0.035C337.139,308.345,335.616,312.477,335.519,316.74z"/>
							<g>
								<path style="fill:#C16B5B;" d="M340.297,328.084c0.104,0.017,0.211-0.036,0.257-0.135c1.603-3.429,2.375-7.242,2.234-11.023
									c-0.006-0.132-0.125-0.228-0.25-0.232c-0.132,0.005-0.236,0.117-0.232,0.25c0.139,3.705-0.618,7.439-2.188,10.8
									c-0.057,0.121-0.005,0.264,0.116,0.32C340.255,328.074,340.276,328.081,340.297,328.084z"/>
								<path style="fill:#C16B5B;" d="M342.826,327.497c0.103,0.017,0.21-0.035,0.257-0.135c1.509-3.195,2.139-6.742,1.826-10.26
									c-0.012-0.133-0.124-0.227-0.262-0.218c-0.133,0.012-0.23,0.129-0.218,0.262c0.307,3.432-0.309,6.894-1.781,10.012
									c-0.057,0.119-0.005,0.263,0.115,0.32C342.783,327.487,342.805,327.494,342.826,327.497z"/>
								<path style="fill:#C16B5B;" d="M345.83,325.738c0.109,0.01,0.215-0.057,0.25-0.165c0.891-2.717,1.276-5.543,1.146-8.401
									c-0.006-0.132-0.111-0.236-0.252-0.23c-0.133,0.007-0.235,0.12-0.23,0.252c0.128,2.799-0.25,5.567-1.122,8.229
									c-0.042,0.126,0.027,0.262,0.154,0.303C345.794,325.733,345.813,325.737,345.83,325.738z"/>
							</g>
						</g>
					</g>
					<g>
						<path style="fill:#EFBC40;" d="M315.666,186.065c0,0,28.463,18.555,33.992,109.31l-12.489,1.588
							c0,0-4.968-46.198-20.397-74.106L315.666,186.065z"/>
						<path style="fill:#E88C45;" d="M337.798,295.43c3.889-0.405,7.777-0.809,11.666-1.214c1.106-0.115,2.167,1.057,2.12,2.12
							c-0.056,1.247-0.934,1.996-2.12,2.119c-3.889,0.405-7.777,0.809-11.666,1.214c-1.106,0.115-2.167-1.057-2.12-2.12
							C335.734,296.302,336.613,295.553,337.798,295.43z"/>
					</g>
				</g>
				<g>
					<g>
						<path style="fill:#EFBC40;" d="M288.589,181.597c-4.842,0.607-9.398,2.134-13.702,4.469c0,0-6.718,56.363-10.07,101.656
							c12.925,11.432,61.241,2.278,61.241,2.278c-2.564-53.332-10.392-103.934-10.392-103.934c-4.125-2.198-8.694-3.632-13.61-4.469
							H288.589z"/>
						<path style="fill:#EFBC40;" d="M279.806,180.309c-0.857-0.743-1.798-1.729-1.508-2.801c0.213-0.787,1.061-1.292,1.903-1.398
							c0.841-0.106,1.687,0.101,2.512,0.288c7.845,1.778,16.114,1.811,23.974,0.097c1.108-0.242,2.241-0.52,3.368-0.379
							c1.127,0.141,2.268,0.814,2.552,1.869c0.327,1.215-0.539,2.4-1.354,3.382c-2.267,2.729-4.564,5.486-7.445,7.616
							c-2.882,2.13-6.454,3.604-10.085,3.369c-3.207-0.208-6.531-1.959-7.84-4.858C284.445,184.312,282.552,182.691,279.806,180.309
							z"/>
					</g>
					<g>
						<g>
							<path style="fill:#E88C45;" d="M298.04,193.493c0.437,0,0.885-0.054,1.331-0.165c1.509-0.377,2.747-1.28,3.758-2.114
								c1.951-1.607,3.658-3.446,5.076-5.465c0.126-0.18,0.082-0.427-0.097-0.554c-0.181-0.126-0.428-0.081-0.554,0.097
								c-1.376,1.96-3.035,3.746-4.93,5.309c-0.943,0.778-2.089,1.617-3.445,1.956c-1.136,0.284-2.682,0.162-3.57-0.747
								c-0.153-0.157-0.405-0.159-0.562-0.006c-0.157,0.153-0.16,0.405-0.006,0.562C295.753,193.095,296.853,193.493,298.04,193.493
								z"/>
							<path style="fill:#E88C45;" d="M290.987,193.359c0.952,0,1.903-0.351,2.581-1.192c0.138-0.171,0.111-0.421-0.06-0.559
								c-0.17-0.137-0.42-0.111-0.559,0.06c-0.904,1.121-2.539,1.072-3.616,0.453c-1.332-0.761-2.227-2.237-2.857-3.437
								c-0.198-0.376-0.388-0.759-0.577-1.142c-0.532-1.075-1.083-2.186-1.817-3.15c-0.133-0.174-0.382-0.208-0.557-0.075
								c-0.174,0.133-0.208,0.383-0.075,0.557c0.689,0.902,1.222,1.979,1.737,3.02c0.193,0.389,0.385,0.777,0.586,1.159
								c0.681,1.296,1.656,2.894,3.167,3.758C289.541,193.156,290.264,193.359,290.987,193.359z"/>
						</g>
						<g>
							<path style="fill:#FFFFFF;" d="M298.236,228.074c0.207,0,0.382-0.161,0.396-0.371c0.794-11.97,0.878-24.112,0.248-36.092
								c-0.012-0.219-0.216-0.394-0.418-0.376c-0.219,0.011-0.388,0.199-0.376,0.418c0.628,11.948,0.544,24.06-0.247,35.998
								c-0.015,0.219,0.151,0.408,0.37,0.423C298.218,228.074,298.227,228.074,298.236,228.074z"/>
							<path style="fill:#FFFFFF;" d="M288.025,228.407c0.002,0,0.005,0,0.007,0c0.219-0.004,0.394-0.185,0.391-0.404
								c-0.213-12.304,0.325-24.746,1.6-36.981c0.023-0.218-0.136-0.414-0.354-0.437c-0.214-0.025-0.414,0.136-0.437,0.354
								c-1.278,12.267-1.818,24.742-1.604,37.077C287.631,228.234,287.809,228.407,288.025,228.407z"/>
						</g>
					</g>
				</g>
			</g>
			<g>
				<path style="fill:#0E2E58;" d="M272.422,128.967c3.343-4.984,9.555-7.926,15.517-7.977c5.962-0.051,11.668,2.49,15.735,6.45
					c-0.08-0.586-0.16-1.188-0.017-1.778c0.143-0.59,0.559-1.173,1.158-1.357c0.823-0.253,1.615,0.307,2.147,0.912
					c1.266,1.44,2.017,3.252,1.988,5.204c1.826-0.596,3.829-0.547,5.535,0.136c0.788,0.315,1.535,0.784,1.961,1.492
					c0.426,0.709,0.464,1.692-0.078,2.388c-0.694,0.89-2.012,1.011-3.107,0.859c-1.095-0.152-2.189-0.528-3.283-0.233
					c2.127,0.86,3.496,2.914,4.012,5.107c0.517,2.192,0.29,4.527-0.065,6.804c-0.704,4.515-1.93,9.055-4.343,13.085
					c-2.413,4.029-6.43,9.114-11.113,9.2c-2.53,0.046-3.862-2.041-4.909-3.895c-4.798-8.503-15.857-11.153-20.781-19.62
					C269.94,140.856,269.079,133.952,272.422,128.967z"/>
				<path style="fill:#E89787;" d="M303.786,135.247c-6.079-11.144-27.465-7.34-29.127,1.52
					c-3.419,18.226-0.823,25.708,4.242,30.014c5.862,4.983,9.688,4.348,9.688,14.817c2.216,5.572,10.722,6.332,13.466,0
					c-0.169-13.867,4.59-24.377,4.59-24.377S306.292,139.842,303.786,135.247z"/>
				<path style="fill:#0E2E58;" d="M301.507,137.716c-3.673,5.294-11.06,4.074-11.06,4.074l4.264-3.672
					c0,0-10.553,6.247-21.449,4.083c0,0-1.599-3.999,3.298-10.668c3.132-4.266,12.242-5.319,20.009-3.884
					c7.767,1.435,11.144,4.812,11.398,10.384c0.253,5.572,0.82,12.53,0.82,12.53l-3.015,2.299
					C301.042,149.708,301.507,137.716,301.507,137.716z"/>
				<g>
					<g>
						<path d="M290.723,152.428c0,0.757-0.614,1.371-1.371,1.371c-0.757,0-1.371-0.614-1.371-1.371c0-0.757,0.614-1.371,1.371-1.371
							C290.109,151.057,290.723,151.671,290.723,152.428z"/>
						<circle style="fill:#FFFFFF;" cx="288.85" cy="152.053" r="0.502"/>
					</g>
					<g>
						<path d="M280.117,152.428c0,0.757-0.614,1.371-1.371,1.371c-0.757,0-1.371-0.614-1.371-1.371c0-0.757,0.614-1.371,1.371-1.371
							C279.503,151.057,280.117,151.671,280.117,152.428z"/>
						<path style="fill:#FFFFFF;" d="M278.746,152.053c0,0.277-0.225,0.502-0.502,0.502c-0.277,0-0.502-0.225-0.502-0.502
							c0-0.277,0.225-0.502,0.502-0.502C278.521,151.551,278.746,151.775,278.746,152.053z"/>
					</g>
					<path style="fill:#0E2E58;" d="M281.035,147.06c-1.722-1.199-3.96-1.13-5.583,0.274c-0.304,0.263-0.357,0.791-0.126,1.134
						c0.236,0.35,0.684,0.408,0.989,0.144c0.666-0.576,1.515-0.836,2.344-0.775c0.419,0.031,0.833,0.143,1.218,0.335
						c0.341,0.17,0.672,0.464,1.056,0.244c0.091-0.052,0.17-0.13,0.232-0.223C281.376,147.877,281.362,147.287,281.035,147.06z"/>
					<path style="fill:#0E2E58;" d="M286.38,147.06c1.975-1.199,4.54-1.13,6.401,0.274c0.349,0.263,0.409,0.791,0.145,1.134
						c-0.271,0.35-0.784,0.408-1.133,0.144c-0.764-0.576-1.737-0.825-2.685-0.762c-0.48,0.032-0.954,0.143-1.398,0.329
						c-0.391,0.164-0.775,0.455-1.211,0.237c-0.105-0.052-0.194-0.13-0.266-0.223C285.989,147.877,286.005,147.287,286.38,147.06z"
						/>
					<path style="fill:#C16B5B;" d="M283.513,160.224c-0.748,0-1.526-0.164-2.277-0.559c-0.351-0.184-0.486-0.617-0.301-0.967
						c0.184-0.35,0.616-0.485,0.967-0.301c1.814,0.951,3.837-0.027,4.415-0.819c0.233-0.318,0.681-0.39,1.001-0.156
						c0.32,0.234,0.389,0.681,0.156,1.001C286.794,159.353,285.236,160.224,283.513,160.224z"/>
					<path style="fill:#C16B5B;" d="M281.821,156.146c-0.078,0-0.149-0.051-0.172-0.129c-0.339-1.169,0.058-1.566,0.451-1.694
						c0.399-0.127,0.877-0.025,1.42,0.311c0.084,0.052,0.11,0.162,0.058,0.247c-0.053,0.083-0.164,0.109-0.247,0.058
						c-0.449-0.277-0.826-0.37-1.121-0.274c-0.353,0.113-0.426,0.535-0.218,1.253c0.027,0.094-0.027,0.194-0.122,0.222
						C281.855,156.144,281.837,156.146,281.821,156.146z"/>
				</g>
				<g>
					<path style="fill:#E89787;" d="M311.336,157.62c-1.833,2.186-4.726,2.779-6.461,1.324c-1.735-1.455-1.656-4.407,0.177-6.593
						c1.833-2.186,4.726-2.779,6.461-1.323C313.248,152.483,313.169,155.434,311.336,157.62z"/>
					<path style="fill:#C16B5B;" d="M310.316,152.098c-0.779-0.412-1.819-0.393-2.779,0.054c-0.479,0.222-0.826,0.493-1.063,0.826
						c-0.313,0.442-0.4,0.998-0.227,1.449c0.155,0.405,0.478,0.668,0.763,0.9c0.206,0.168,0.402,0.327,0.512,0.516
						c0.169,0.291,0.127,0.699-0.1,0.949c-0.226,0.249-0.628,0.329-0.934,0.188c-0.18-0.083-0.392-0.004-0.476,0.175
						c-0.082,0.179-0.005,0.393,0.175,0.476c0.197,0.091,0.41,0.134,0.624,0.134c0.425,0,0.852-0.173,1.141-0.492
						c0.435-0.479,0.514-1.232,0.188-1.791c-0.176-0.302-0.443-0.519-0.679-0.711c-0.236-0.192-0.46-0.374-0.546-0.602
						c-0.087-0.227-0.031-0.532,0.143-0.778c0.07-0.099,0.166-0.188,0.271-0.274c0.356-0.003,0.801,0.107,1.026,0.352
						c0.253,0.278,0.373,0.679,0.312,1.049c-0.032,0.195,0.1,0.379,0.295,0.411c0.02,0.003,0.039,0.005,0.059,0.005
						c0.172,0,0.324-0.125,0.353-0.3c0.098-0.59-0.085-1.206-0.49-1.649c-0.151-0.164-0.339-0.276-0.536-0.366
						c0.593-0.16,1.178-0.128,1.631,0.111c0.56,0.296,0.984,1.061,0.695,1.683c-0.082,0.18-0.004,0.393,0.175,0.476
						c0.18,0.083,0.392,0.005,0.476-0.175C311.747,153.808,311.283,152.61,310.316,152.098z"/>
				</g>
			</g>
		</g>
	</g>
	<g>
		<path style="fill:#FFFEFF;" d="M342.685,206.388c8.788-9.28,8.768-24.305-0.045-33.559c-8.813-9.254-23.082-9.233-31.87,0.047
			c-7.85,8.29-8.651,21.153-2.454,30.403l-5.481,11.584l10.985-5.804C322.621,215.557,334.834,214.678,342.685,206.388z"/>
		<path style="fill:#DE4544;" d="M340.494,187.6c0-4.444-3.421-8.046-7.641-8.046c-2.602,0-4.898,1.373-6.278,3.465
			c-1.38-2.092-3.675-3.465-6.277-3.465c-4.22,0-7.641,3.602-7.641,8.046c0,2.421,1.02,4.586,2.626,6.061l-0.007,0.003
			l11.299,10.717l11.299-10.717l-0.007-0.003C339.474,192.186,340.494,190.02,340.494,187.6z"/>
	</g>
	<g>
		<g>
			<path style="fill:#14448E;" d="M110.413,267.956l33.19,0.902l31.862,0.507c0,0-7.83,63.425-18.68,173.183
				c-4.539,2.747-6.428,2.57-10.971-0.335c0,0-3.884-53.176-0.056-74.307c-0.6-22.324-2.008-44.211-1.258-70.544
				c-1.151-0.039-13.566,77.842-24.469,145.183c-4.487,2.78-6.383,2.544-10.976-0.328c0,0-3.77-36.656,2.978-73.694
				C112.924,333.285,106.887,304.714,110.413,267.956z"/>
			<g>
				<path d="M146.638,454.331c0,0,14.346,3.02,34.226,0.911c0.106-5.712-7.227-6.411-14.73-8.541
					c-3.285-0.932-6.602-2.13-9.347-4.154l-10.976-0.328c-0.021,0.053-0.042,0.106-0.053,0.169
					C144.01,447.771,146.638,454.331,146.638,454.331z"/>
				<path style="fill:#E7AC8D;" d="M145.758,442.387c20.8,11.138,20.174,4.631,20.376,4.313c-3.285-0.932-6.602-2.13-9.347-4.154
					l-10.976-0.328C145.79,442.271,145.769,442.324,145.758,442.387z"/>
			</g>
			<g>
				<path d="M109.882,454.331c0,0,14.346,3.02,34.226,0.911c0.106-5.712-7.227-6.411-14.73-8.541
					c-3.285-0.932-6.602-2.13-9.347-4.154l-10.976-0.328c-0.021,0.053-0.042,0.106-0.053,0.169
					C107.254,447.771,109.882,454.331,109.882,454.331z"/>
				<path style="fill:#E7AC8D;" d="M109.002,442.387c20.8,11.138,20.174,4.631,20.376,4.313c-3.285-0.932-6.602-2.13-9.347-4.154
					l-10.976-0.328C109.034,442.271,109.013,442.324,109.002,442.387z"/>
			</g>
		</g>
		<g>
			<g>
				<g>
					<path style="fill:#225FC2;" d="M110.465,267.979c-0.031-0.013-0.051-0.022-0.051-0.022c0.018-0.025,0.04-0.06,0.06-0.089
						c0.164-1.908,0.505-4.405,1.182-7.511c1.054-4.874,7.684-17.538,10.168-36.381c0.599-4.511,0.366-10.813-0.1-16.566
						c-0.629-7.791-1.673-14.583-1.684-14.655c-0.001-0.001-0.001-0.002-0.002-0.003c1.014-13.761,1.537-23.539,1.364-23.606
						c2.979-2.673,9.426-4.26,14.8-4.248h0.817c4.422-0.585,13.138-0.197,15.669,0.314c1.106,0.163,2.219,0.358,3.305,0.595
						l3.331,0.858c2.555,0.769,4.561,1.668,5.195,2.481c1.2,1.731,1.907,7.116,2.617,16.213c2.72,5.375,5.877,14.132,1.482,21.806
						c0,0.003,0.001,0.005,0.001,0.008c-0.002,0-0.004,0.001-0.006,0.001c-0.561,0.979-1.235,1.941-2.06,2.875
						c0,0-0.111,0.641-0.266,1.749c-0.488,3.435-1.408,11.299-0.776,17.715c0.761,7.737,8.288,24.459,9.994,38.534
						c0.001,0.001,0.003,0.004,0.003,0.005c-0.001,0-0.002,0-0.003,0c0.002,0.013,0.003,0.026,0.005,0.039
						c0.269,2.237-1.292,4.305-3.606,4.942c-19.187,5.277-38.443,5.478-57.777,0.51c-2.311-0.594-3.861-2.593-3.716-4.826
						C110.425,268.481,110.443,268.235,110.465,267.979z"/>
				</g>
				<path style="fill:#FFFEFF;" d="M152.688,165.211c0,0,9.778,90.614,7.233,150.461c0,0,9.645,0.172,17.698-9.645
					c0,0,1.584-36.074-2.079-45.056c-3.663-8.982-9.897-30.026-9.376-34.365c0.521-4.339,1.347-16.448,1.347-16.448
					s9.375-9.847-0.375-24.8c0,0-0.236-13.135-2.617-16.213C162.139,166.067,152.688,165.211,152.688,165.211z"/>
				<path style="fill:#FFFEFF;" d="M133.994,164.977c0,0,6.408,103.18-4.892,150.695c0,0-13.108-2.507-23.056-11.713
					c0,0,0.904-26.932,2.713-37.514c1.809-10.582,12.105-31.174,12.63-41.079c0.525-9.905-1.352-32.616-1.352-32.616l1.364-23.606
					C124.052,166.538,129.132,165.211,133.994,164.977z"/>
			</g>
			<g>
				<g>
					<path style="fill:#E89787;" d="M114.143,177.509c0,0-24.273,28.553-25.476,112.578h9.207c0,0,2.527-51.407,19.216-82.711
						L114.143,177.509z"/>
					<g>
						<path style="fill:#E89787;" d="M97.209,288.606c-0.246-0.314-0.619-0.249-0.851-0.035c-0.056-0.028-0.112-0.057-0.184-0.069
							c-2.566-0.431-5.58-0.688-7.409,1.534c-1.482,1.8-2.11,4.466-2.333,6.694c-0.478,4.764,1.106,9.654,4.434,13.176
							c0.175,0.185,0.397,0.215,0.596,0.163c0.562,0.808,1.277,1.486,2.24,1.855c0.323,0.124,0.581-0.031,0.712-0.259
							c0.153,0.13,0.314,0.249,0.49,0.342c0.637,0.336,1.373,0.286,1.913-0.063c0.541,0.191,1.137,0.14,1.617-0.321
							c0.942-0.905,0.439-2.145,0.068-3.164c-0.486-1.333-0.819-2.717-1.009-4.122c-0.294-2.169-0.218-4.377,0.199-6.531
							c0.102,0.34,0.204,0.68,0.306,1.02c0.303,1.011,0.508,2.138,0.949,3.101c0.323,0.706,1.171,1.235,1.937,0.752
							c0.753-0.475,0.613-1.572,0.597-2.302C101.384,296.114,99.861,291.982,97.209,288.606z"/>
						<g>
							<path style="fill:#C16B5B;" d="M96.702,311.721c-0.104,0.017-0.211-0.036-0.257-0.135c-1.603-3.429-2.375-7.242-2.234-11.023
								c0.006-0.132,0.125-0.228,0.25-0.232c0.132,0.005,0.236,0.117,0.231,0.25c-0.139,3.705,0.618,7.439,2.188,10.8
								c0.057,0.121,0.005,0.264-0.116,0.32C96.745,311.712,96.724,311.718,96.702,311.721z"/>
							<path style="fill:#C16B5B;" d="M94.174,311.135c-0.103,0.017-0.21-0.035-0.257-0.135c-1.509-3.195-2.14-6.742-1.826-10.26
								c0.012-0.133,0.124-0.227,0.262-0.218c0.133,0.012,0.23,0.129,0.218,0.262c-0.307,3.432,0.309,6.894,1.781,10.012
								c0.057,0.119,0.005,0.263-0.115,0.32C94.217,311.125,94.195,311.131,94.174,311.135z"/>
							<path style="fill:#C16B5B;" d="M91.169,309.375c-0.109,0.01-0.215-0.057-0.25-0.165c-0.891-2.717-1.276-5.543-1.146-8.401
								c0.006-0.132,0.111-0.236,0.252-0.23c0.133,0.007,0.235,0.12,0.23,0.252c-0.128,2.799,0.25,5.567,1.122,8.229
								c0.042,0.126-0.027,0.262-0.154,0.303C91.206,309.37,91.187,309.374,91.169,309.375z"/>
						</g>
					</g>
				</g>
				<path style="fill:#FFFEFF;" d="M87.693,283.311h13.248c0,0-0.372-45.49,21.413-83.597l-0.952-30.569
					C94.838,193.093,92.348,234.349,87.693,283.311z"/>
			</g>
			<g>
				<g>
					<path style="fill:#E89787;" d="M171.114,195.116c1.037-4.891,0.198-10.89-2.566-15.124c-0.313-0.479-0.663-0.914-1.031-1.328
						l12.506,3.569c8.215,9.66,19.514,18.502,30.644,25.877c23.751,3.447,58.346,1.329,58.346,1.329l0.639,9.851
						c-15.99,0.807-45.179,1.473-60.259,0.841c-2.736-0.115-5.401-0.917-7.76-2.308c-13.316-7.853-23.347-15.333-30.824-21.825
						C170.937,195.73,171.045,195.442,171.114,195.116z"/>
					<g>
						<path style="fill:#14448E;" d="M273.604,212.871c2.089,1.559,5.188,0.94,6.923-1.383c1.734-2.323,1.447-5.471-0.642-7.03
							c-2.089-1.559-5.188-0.94-6.923,1.383C271.228,208.164,271.516,211.312,273.604,212.871z"/>
						<g>
							<path style="fill:#E89787;" d="M271.357,218.818c3.115-1.48,5.975-4.59,7.649-7.548c0.359-0.635,1.001-1.536,0.562-2.31
								c-0.447-0.788-1.444-0.723-2.063-0.253c-0.844,0.64-1.556,1.536-2.302,2.284c-0.251,0.251-0.501,0.503-0.752,0.754
								c0.651-2.095,1.627-4.077,2.911-5.849c0.831-1.148,1.779-2.21,2.838-3.155c0.809-0.722,1.838-1.577,1.435-2.82
								c-0.205-0.633-0.707-0.96-1.273-1.047c-0.31-0.563-0.935-0.954-1.656-0.959c-0.199-0.001-0.397,0.027-0.593,0.07
								c-0.008-0.263-0.162-0.522-0.505-0.565c-1.023-0.13-1.974,0.13-2.851,0.576c-0.15-0.14-0.36-0.219-0.602-0.138
								c-4.597,1.53-8.304,5.091-10.135,9.515c-0.856,2.069-1.563,4.715-1.108,7.001c0.333,1.677,1.547,2.865,2.991,3.674
								c1.286,0.72,2.459,1.291,3.757,1.223C270.198,219.241,270.759,219.102,271.357,218.818z"/>
							<g>
								<path style="fill:#C16B5B;" d="M280.158,199.014c-0.084-0.064-0.203-0.068-0.29-0.002c-3.034,2.264-5.516,5.259-7.179,8.658
									c-0.057,0.119,0.002,0.26,0.111,0.322c0.119,0.058,0.263,0.009,0.322-0.111c1.629-3.33,4.061-6.264,7.033-8.483
									c0.108-0.08,0.129-0.231,0.05-0.337C280.19,199.043,280.175,199.028,280.158,199.014z"/>
								<path style="fill:#C16B5B;" d="M277.652,198.336c-0.083-0.064-0.202-0.068-0.29-0.002c-2.84,2.102-5.072,4.93-6.459,8.179
									c-0.052,0.122,0.002,0.259,0.128,0.316c0.122,0.052,0.264-0.005,0.316-0.128c1.352-3.169,3.531-5.929,6.302-7.981
									c0.107-0.079,0.129-0.23,0.05-0.337C277.685,198.366,277.669,198.35,277.652,198.336z"/>
								<path style="fill:#C16B5B;" d="M274.173,198.467c-0.091-0.06-0.216-0.051-0.298,0.028c-2.07,1.973-3.745,4.282-4.981,6.861
									c-0.057,0.119-0.014,0.261,0.113,0.322c0.12,0.057,0.264,0.006,0.322-0.114c1.21-2.527,2.851-4.788,4.878-6.722
									c0.097-0.091,0.1-0.244,0.008-0.34C274.202,198.488,274.188,198.476,274.173,198.467z"/>
							</g>
						</g>
					</g>
				</g>
				<path style="fill:#FFFEFF;" d="M261.663,220.868v-12.787c0,0-38.088,1.741-49.406-1.306c0,0-38.87-36.424-50.144-39.121
					l5.256,29.535c0,0,30.74,21.23,37.705,23.679C212.04,223.317,261.663,220.868,261.663,220.868z"/>
			</g>
		</g>
		<g>
			<g>
				<path style="fill:#0E2E58;" d="M123.751,160.412l41.182-0.083c8.507-0.017,14.113-8.991,10.273-16.582
					c-1.071-2.117-2.391-4.095-3.936-5.862c1.95-5.616,0.384-12.457-3.898-16.449c-0.933-7.678-6.538-14.528-13.696-16.739
					c-7.157-2.211-15.468,0.342-20.306,6.237c-2.992,0.233-11.265,4.348-10.421,12.014c-6.099,3.464-8.458,11.114-6.726,17.316
					c-0.178,0.144-0.357,0.299-0.535,0.464C108.124,147.714,113.454,160.433,123.751,160.412z"/>
				<g>
					<path style="fill:#E89787;" d="M133.51,118.253c6.079-11.144,27.465-7.34,29.127,1.52c3.419,18.226,0.823,25.708-4.242,30.014
						c-5.862,4.983-9.688,4.348-9.688,14.817c-2.216,5.572-10.722,6.332-13.466,0c0.169-13.867-4.59-24.377-4.59-24.377
						S131.004,122.848,133.51,118.253z"/>
					<path style="fill:#0E2E58;" d="M135.79,120.723c0,0,0.464,11.992-4.264,15.146l-3.015-2.299c0,0,0.567-6.958,0.82-12.53
						c0.253-5.572,3.63-8.949,11.398-10.384c7.767-1.435,16.877-0.383,20.009,3.883c4.897,6.67,3.298,10.668,3.298,10.668
						c-4.039,0-8.121,0.089-11.322-2.374C147.329,124.126,140.582,123.499,135.79,120.723z"/>
					<g>
						<g>
							<path d="M146.574,135.434c0,0.757,0.614,1.371,1.371,1.371c0.757,0,1.371-0.614,1.371-1.371c0-0.757-0.614-1.371-1.371-1.371
								C147.188,134.063,146.574,134.677,146.574,135.434z"/>
							<circle style="fill:#FFFFFF;" cx="148.447" cy="135.059" r="0.502"/>
						</g>
						<g>
							<path d="M157.179,135.434c0,0.757,0.614,1.371,1.371,1.371c0.757,0,1.371-0.614,1.371-1.371c0-0.757-0.614-1.371-1.371-1.371
								C157.793,134.063,157.179,134.677,157.179,135.434z"/>
							<circle style="fill:#FFFFFF;" cx="159.052" cy="135.059" r="0.502"/>
						</g>
						<path style="fill:#0E2E58;" d="M156.261,130.066c1.722-1.199,3.96-1.13,5.583,0.274c0.304,0.263,0.357,0.791,0.126,1.134
							c-0.236,0.35-0.684,0.408-0.989,0.144c-0.666-0.576-1.515-0.836-2.344-0.775c-0.419,0.031-0.833,0.143-1.218,0.335
							c-0.341,0.17-0.672,0.464-1.056,0.244c-0.091-0.052-0.17-0.13-0.232-0.223C155.92,130.883,155.934,130.294,156.261,130.066z"
							/>
						<path style="fill:#0E2E58;" d="M150.916,130.066c-1.975-1.199-4.54-1.13-6.401,0.274c-0.348,0.263-0.409,0.791-0.144,1.134
							c0.271,0.35,0.784,0.408,1.133,0.144c0.764-0.576,1.737-0.825,2.685-0.762c0.48,0.032,0.954,0.143,1.398,0.329
							c0.391,0.164,0.775,0.455,1.211,0.237c0.105-0.052,0.195-0.13,0.266-0.223C151.308,130.883,151.291,130.294,150.916,130.066z"
							/>
						<path style="fill:#C16B5B;" d="M153.783,143.23c0.748,0,1.527-0.164,2.277-0.559c0.35-0.184,0.486-0.617,0.301-0.967
							c-0.184-0.35-0.616-0.485-0.967-0.301c-1.814,0.952-3.837-0.027-4.415-0.819c-0.233-0.318-0.681-0.39-1.001-0.156
							c-0.32,0.234-0.389,0.681-0.156,1.001C150.502,142.36,152.06,143.23,153.783,143.23z"/>
						<path style="fill:#C16B5B;" d="M155.475,139.153c0.078,0,0.149-0.051,0.172-0.129c0.339-1.169-0.058-1.566-0.451-1.694
							c-0.399-0.127-0.877-0.025-1.42,0.311c-0.084,0.052-0.11,0.162-0.058,0.247c0.053,0.083,0.164,0.109,0.247,0.058
							c0.448-0.277,0.826-0.37,1.121-0.274c0.353,0.113,0.426,0.535,0.218,1.253c-0.027,0.094,0.027,0.194,0.122,0.222
							C155.442,139.151,155.459,139.153,155.475,139.153z"/>
					</g>
					<g>
						<path style="fill:#E89787;" d="M125.961,140.627c1.833,2.186,4.726,2.779,6.461,1.324c1.735-1.455,1.656-4.407-0.178-6.593
							c-1.833-2.186-4.726-2.779-6.461-1.323C124.048,135.489,124.128,138.441,125.961,140.627z"/>
						<path style="fill:#C16B5B;" d="M126.98,135.104c0.779-0.412,1.819-0.393,2.779,0.054c0.479,0.222,0.826,0.493,1.063,0.826
							c0.314,0.442,0.4,0.998,0.227,1.449c-0.155,0.405-0.478,0.668-0.763,0.9c-0.206,0.168-0.402,0.327-0.512,0.516
							c-0.169,0.291-0.127,0.699,0.1,0.949c0.226,0.249,0.627,0.329,0.934,0.188c0.18-0.083,0.392-0.004,0.476,0.175
							c0.083,0.179,0.005,0.393-0.175,0.476c-0.197,0.091-0.41,0.134-0.624,0.134c-0.425,0-0.852-0.173-1.141-0.492
							c-0.435-0.479-0.514-1.232-0.188-1.791c0.176-0.302,0.443-0.519,0.679-0.711c0.236-0.192,0.46-0.374,0.546-0.602
							c0.087-0.227,0.031-0.532-0.143-0.778c-0.07-0.099-0.166-0.188-0.272-0.274c-0.356-0.003-0.801,0.106-1.026,0.352
							c-0.253,0.278-0.373,0.679-0.312,1.049c0.032,0.195-0.1,0.379-0.295,0.411c-0.02,0.004-0.039,0.005-0.059,0.005
							c-0.172,0-0.324-0.125-0.353-0.3c-0.098-0.59,0.085-1.206,0.49-1.649c0.151-0.164,0.339-0.276,0.536-0.366
							c-0.593-0.16-1.177-0.128-1.631,0.111c-0.56,0.296-0.984,1.061-0.695,1.683c0.083,0.18,0.004,0.393-0.175,0.476
							c-0.18,0.083-0.392,0.005-0.476-0.175C125.55,136.815,126.013,135.616,126.98,135.104z"/>
					</g>
				</g>
			</g>
			<g>
				<g>
					<path style="fill:#14448E;" d="M129.764,138.405c0.254,1.844,6.549,44.996,17.952,44.996c11.445,0,13.522-34.685,13.607-36.158
						c0.011-0.191-0.085-0.371-0.233-0.456c-0.275,0.413-0.572,0.805-0.88,1.176c-0.257,3.493-1.496,17.837-5.19,26.856
						c-4.834,2.904-9.653,2.894-14.72-0.034c-5.993-12.512-9.44-36.202-9.486-36.529c-0.042-0.286-0.318-0.488-0.604-0.445
						C129.923,137.854,129.722,138.119,129.764,138.405z M141.134,176.419c2.227,1.07,4.445,1.614,6.643,1.614
						c2.204,0,4.388-0.547,6.541-1.624c-1.702,3.536-3.863,5.932-6.602,5.932C145.292,182.341,143.089,180.008,141.134,176.419z"/>
					<path style="fill:#FFFEFF;" d="M129.947,137.497c-0.668,0.623-1.107,1.748-0.667,2.22c0.44,0.471,1.592,0.11,2.26-0.513
						c0.668-0.623,0.598-1.273,0.158-1.744C131.257,136.988,130.614,136.874,129.947,137.497z"/>
				</g>
				<g>
					<path style="fill:#14448E;" d="M148.729,182.657c1.392,13.591,18.314,30.126,40.239,39.315
						c12.904,5.409,43.985,14.864,74.576-2.408c0.789-0.032,1.559-0.065,2.311-0.097c-13.879,8.319-27.923,11.076-40.439,11.076
						c-15.94,0-29.4-4.469-36.857-7.594c-22.261-9.331-39.455-26.231-40.883-40.185L148.729,182.657z"/>
				</g>
			</g>
		</g>
	</g>
	<g>
		<g>
			<g>
				<path style="fill:#EFBC40;" d="M344.986,397.816c-2.325-4.318-6.66-7.164-11.05-9.349c-4.39-2.185-9.06-3.923-12.975-6.875
					c-5.075-3.827-8.542-9.474-10.763-15.43c-2.221-5.956-3.293-12.268-4.353-18.535c7.38,6.949,17.328,8.294,25.366,14.47
					c5.29,4.065,8.996,9.955,11.184,16.258C344.583,384.657,344.857,391.146,344.986,397.816z"/>
				<path style="fill:#E88C45;" d="M345.622,422.348c-0.008,0-0.014,0-0.021-0.001c-0.177-0.011-0.311-0.164-0.298-0.341
					c0.675-10.068,1.44-21.479-3.123-31.34c-3.69-7.975-10.509-14.064-17.104-19.952c-6.272-5.6-12.757-11.391-16.65-18.844
					c-0.081-0.158-0.021-0.351,0.135-0.433c0.158-0.084,0.351-0.021,0.433,0.135c3.839,7.35,10.28,13.102,16.509,18.663
					c6.644,5.932,13.513,12.065,17.258,20.161c4.633,10.009,3.862,21.508,3.18,31.652
					C345.93,422.217,345.79,422.348,345.622,422.348z"/>
			</g>
			<g>
				<path style="fill:#EFBC40;" d="M338.378,404.719c-1.144-1.078-3.591-1.834-5.098-2.202c-3.823-0.933-7.896-1.274-11.351-3.388
					c-5.242-3.207-7.861-8.342-12.07-12.682c6.013-1.434,12.525-0.046,17.792,3.19C332.919,392.873,336.938,398.707,338.378,404.719
					z"/>
				<path style="fill:#E88C45;" d="M343.274,422.782c-0.174,0-0.317-0.139-0.321-0.313c-0.119-5.401-1.293-13.212-6.216-19.752
					c-2.574-3.421-6.23-6.505-10.868-9.168c-4.166-2.392-8.695-4.235-13.076-6.017c-0.164-0.066-0.243-0.253-0.177-0.417
					c0.065-0.165,0.255-0.244,0.417-0.177c4.4,1.79,8.951,3.641,13.154,6.055c4.713,2.707,8.436,5.848,11.063,9.338
					c5.025,6.676,6.224,14.627,6.344,20.122c0.004,0.178-0.137,0.324-0.313,0.328C343.279,422.782,343.277,422.782,343.274,422.782z
					"/>
			</g>
			<g>
				<path style="fill:#EFBC40;" d="M349.265,404.746c0.964-1.963,3.783-4.143,5.565-5.357c4.524-3.082,9.663-5.514,13.132-9.954
					c5.262-6.737,6.167-14.704,9.531-22.413c-8.533,1.069-16.337,6.055-21.619,12.842
					C350.592,386.65,348.205,396.212,349.265,404.746z"/>
				<path style="fill:#E88C45;" d="M348.067,422.251c-0.162,0-0.301-0.121-0.318-0.286c-1.052-9.571,1.162-19.739,6.404-29.403
					c4.373-8.063,10.732-15.671,19.442-23.26c0.132-0.115,0.334-0.103,0.452,0.031c0.117,0.133,0.103,0.336-0.031,0.452
					c-8.651,7.538-14.964,15.088-19.299,23.082c-5.179,9.548-7.369,19.586-6.332,29.027c0.02,0.177-0.107,0.334-0.283,0.353
					C348.089,422.251,348.078,422.251,348.067,422.251z"/>
			</g>
		</g>
		<g>
			<path style="fill:#FF7168;" d="M366.831,414.177v26.371c0,8.311-6.734,15.045-15.045,15.045h-11.326
				c-8.311,0-15.045-6.734-15.045-15.045v-26.371H366.831z"/>
			<rect x="325.415" y="425.015" style="fill:#DE4544;" width="41.416" height="5.336"/>
		</g>
	</g>
</g>
</svg>
